<?xml version="1.0" encoding="UTF-8" standalone="no"?>
<!DOCTYPE svg PUBLIC "-//W3C//DTD SVG 1.1//EN"
 "http://www.w3.org/Graphics/SVG/1.1/DTD/svg11.dtd">
<!-- Generated by graphviz version 12.2.1 (20241206.2353)
 -->
<!-- Title: AST Pages: 1 -->
<svg width="1634pt" height="898pt"
 viewBox="0.00 0.00 1634.38 897.50" xmlns="http://www.w3.org/2000/svg" xmlns:xlink="http://www.w3.org/1999/xlink">
<g id="graph0" class="graph" transform="scale(1 1) rotate(0) translate(4 893.5)">
<title>AST</title>
<polygon fill="white" stroke="none" points="-4,4 -4,-893.5 1630.38,-893.5 1630.38,4 -4,4"/>
<!-- p0x5dca766d4270 -->
<g id="node1" class="node">
<title>p0x5dca766d4270</title>
<polygon fill="lightgreen" stroke="black" points="195,-733.75 195,-801.5 389.5,-801.5 389.5,-733.75 195,-733.75"/>
<text text-anchor="middle" x="292.25" y="-784.2" font-family="Times,serif" font-size="14.00">nameType::TYPE_NAME:</text>
<text text-anchor="middle" x="292.25" y="-766.95" font-family="Times,serif" font-size="14.00">фраер</text>
<polyline fill="none" stroke="black" points="195,-759 389.5,-759"/>
<text text-anchor="middle" x="243.25" y="-741.7" font-family="Times,serif" font-size="14.00">(nil)</text>
<polyline fill="none" stroke="black" points="291.5,-733.75 291.5,-759"/>
<text text-anchor="middle" x="340.25" y="-741.7" font-family="Times,serif" font-size="14.00">(nil)</text>
</g>
<!-- p0x5dca766d4490 -->
<g id="node2" class="node">
<title>p0x5dca766d4490</title>
<polygon fill="lightgreen" stroke="black" points="0,-419.5 0,-487.25 194.5,-487.25 194.5,-419.5 0,-419.5"/>
<text text-anchor="middle" x="97.25" y="-469.95" font-family="Times,serif" font-size="14.00">nameType::TYPE_NAME:</text>
<text text-anchor="middle" x="97.25" y="-452.7" font-family="Times,serif" font-size="14.00">фраер</text>
<polyline fill="none" stroke="black" points="0,-444.75 194.5,-444.75"/>
<text text-anchor="middle" x="48.25" y="-427.45" font-family="Times,serif" font-size="14.00">(nil)</text>
<polyline fill="none" stroke="black" points="96.5,-419.5 96.5,-444.75"/>
<text text-anchor="middle" x="145.25" y="-427.45" font-family="Times,serif" font-size="14.00">(nil)</text>
</g>
<!-- p0x5dca766d4550 -->
<g id="node3" class="node">
<title>p0x5dca766d4550</title>
<polygon fill="lightblue" stroke="black" points="93.25,-323.38 93.25,-373.88 237.25,-373.88 237.25,-323.38 93.25,-323.38"/>
<text text-anchor="middle" x="165" y="-356.57" font-family="Times,serif" font-size="14.00">CONSTANT: 5</text>
<polyline fill="none" stroke="black" points="93.25,-348.62 236.75,-348.62"/>
<text text-anchor="middle" x="129" y="-331.32" font-family="Times,serif" font-size="14.00">(nil)</text>
<polyline fill="none" stroke="black" points="164.75,-323.38 164.75,-348.62"/>
<text text-anchor="middle" x="200.5" y="-331.32" font-family="Times,serif" font-size="14.00">(nil)</text>
</g>
<!-- p0x5dca766d44d0 -->
<g id="node4" class="node">
<title>p0x5dca766d44d0</title>
<polygon fill="lightgreen" stroke="black" points="255.12,-314.75 255.12,-382.5 447.38,-382.5 447.38,-314.75 255.12,-314.75"/>
<text text-anchor="middle" x="351.25" y="-365.2" font-family="Times,serif" font-size="14.00">nameType::IDENTIFIER:</text>
<text text-anchor="middle" x="351.25" y="-347.95" font-family="Times,serif" font-size="14.00">икс</text>
<polyline fill="none" stroke="black" points="255.12,-340 447.38,-340"/>
<text text-anchor="middle" x="302.88" y="-322.7" font-family="Times,serif" font-size="14.00">(nil)</text>
<polyline fill="none" stroke="black" points="350.62,-314.75 350.62,-340"/>
<text text-anchor="middle" x="398.88" y="-322.7" font-family="Times,serif" font-size="14.00">(nil)</text>
</g>
<!-- p0x5dca766d4510 -->
<g id="node5" class="node">
<title>p0x5dca766d4510</title>
<polygon fill="lightgreen" stroke="black" points="212.25,-419.5 212.25,-487.25 490.25,-487.25 490.25,-419.5 212.25,-419.5"/>
<text text-anchor="middle" x="351.25" y="-469.95" font-family="Times,serif" font-size="14.00">nameType::OPERATOR:</text>
<text text-anchor="middle" x="351.25" y="-452.7" font-family="Times,serif" font-size="14.00">сел по статье</text>
<polyline fill="none" stroke="black" points="212.25,-444.75 490.25,-444.75"/>
<text text-anchor="middle" x="281.75" y="-427.45" font-family="Times,serif" font-size="14.00">0x5dca766d4550</text>
<polyline fill="none" stroke="black" points="351.25,-419.5 351.25,-444.75"/>
<text text-anchor="middle" x="420.75" y="-427.45" font-family="Times,serif" font-size="14.00">0x5dca766d44d0</text>
</g>
<!-- p0x5dca766d4510&#45;&gt;p0x5dca766d4550 -->
<g id="edge1" class="edge">
<title>p0x5dca766d4510:l&#45;&gt;p0x5dca766d4550</title>
<path fill="none" stroke="black" d="M289.83,-419.12C267.07,-406.42 241.45,-392.13 219.39,-379.83"/>
<polygon fill="black" stroke="black" points="221.29,-376.88 210.85,-375.06 217.88,-382.99 221.29,-376.88"/>
</g>
<!-- p0x5dca766d4510&#45;&gt;p0x5dca766d44d0 -->
<g id="edge2" class="edge">
<title>p0x5dca766d4510:l&#45;&gt;p0x5dca766d44d0</title>
<path fill="none" stroke="black" d="M351.25,-419.12C351.25,-411.17 351.25,-402.6 351.25,-394.29"/>
<polygon fill="black" stroke="black" points="354.75,-394.3 351.25,-384.3 347.75,-394.3 354.75,-394.3"/>
</g>
<!-- p0x5dca766d43c0 -->
<g id="node6" class="node">
<title>p0x5dca766d43c0</title>
<polygon fill="pink" stroke="black" points="212.25,-532.88 212.25,-583.38 490.25,-583.38 490.25,-532.88 212.25,-532.88"/>
<text text-anchor="middle" x="351.25" y="-566.08" font-family="Times,serif" font-size="14.00">VARIABLE: икс</text>
<polyline fill="none" stroke="black" points="212.25,-558.12 490.25,-558.12"/>
<text text-anchor="middle" x="281.75" y="-540.83" font-family="Times,serif" font-size="14.00">0x5dca766d4490</text>
<polyline fill="none" stroke="black" points="351.25,-532.88 351.25,-558.12"/>
<text text-anchor="middle" x="420.75" y="-540.83" font-family="Times,serif" font-size="14.00">0x5dca766d4510</text>
</g>
<!-- p0x5dca766d43c0&#45;&gt;p0x5dca766d4490 -->
<g id="edge3" class="edge">
<title>p0x5dca766d43c0:l&#45;&gt;p0x5dca766d4490</title>
<path fill="none" stroke="black" d="M288.46,-532.48C258.5,-520.24 222.08,-505.36 189.08,-491.89"/>
<polygon fill="black" stroke="black" points="190.49,-488.68 179.91,-488.14 187.84,-495.16 190.49,-488.68"/>
</g>
<!-- p0x5dca766d43c0&#45;&gt;p0x5dca766d4510 -->
<g id="edge4" class="edge">
<title>p0x5dca766d43c0:l&#45;&gt;p0x5dca766d4510</title>
<path fill="none" stroke="black" d="M351.25,-532.48C351.25,-522.31 351.25,-510.31 351.25,-498.81"/>
<polygon fill="black" stroke="black" points="354.75,-499.08 351.25,-489.08 347.75,-499.08 354.75,-499.08"/>
</g>
<!-- p0x5dca766d45d0 -->
<g id="node7" class="node">
<title>p0x5dca766d45d0</title>
<polygon fill="lightgreen" stroke="black" points="465,-314.75 465,-382.5 659.5,-382.5 659.5,-314.75 465,-314.75"/>
<text text-anchor="middle" x="562.25" y="-365.2" font-family="Times,serif" font-size="14.00">nameType::TYPE_NAME:</text>
<text text-anchor="middle" x="562.25" y="-347.95" font-family="Times,serif" font-size="14.00">фраер</text>
<polyline fill="none" stroke="black" points="465,-340 659.5,-340"/>
<text text-anchor="middle" x="513.25" y="-322.7" font-family="Times,serif" font-size="14.00">(nil)</text>
<polyline fill="none" stroke="black" points="561.5,-314.75 561.5,-340"/>
<text text-anchor="middle" x="610.25" y="-322.7" font-family="Times,serif" font-size="14.00">(nil)</text>
</g>
<!-- p0x5dca766d47c0 -->
<g id="node8" class="node">
<title>p0x5dca766d47c0</title>
<polygon fill="lightblue" stroke="black" points="558.25,-218.62 558.25,-269.12 702.25,-269.12 702.25,-218.62 558.25,-218.62"/>
<text text-anchor="middle" x="630" y="-251.82" font-family="Times,serif" font-size="14.00">CONSTANT: 10</text>
<polyline fill="none" stroke="black" points="558.25,-243.88 701.75,-243.88"/>
<text text-anchor="middle" x="594" y="-226.57" font-family="Times,serif" font-size="14.00">(nil)</text>
<polyline fill="none" stroke="black" points="629.75,-218.62 629.75,-243.88"/>
<text text-anchor="middle" x="665.5" y="-226.57" font-family="Times,serif" font-size="14.00">(nil)</text>
</g>
<!-- p0x5dca766d4630 -->
<g id="node9" class="node">
<title>p0x5dca766d4630</title>
<polygon fill="lightgreen" stroke="black" points="720.12,-210 720.12,-277.75 912.38,-277.75 912.38,-210 720.12,-210"/>
<text text-anchor="middle" x="816.25" y="-260.45" font-family="Times,serif" font-size="14.00">nameType::IDENTIFIER:</text>
<text text-anchor="middle" x="816.25" y="-243.2" font-family="Times,serif" font-size="14.00">игрек</text>
<polyline fill="none" stroke="black" points="720.12,-235.25 912.38,-235.25"/>
<text text-anchor="middle" x="767.88" y="-217.95" font-family="Times,serif" font-size="14.00">(nil)</text>
<polyline fill="none" stroke="black" points="815.62,-210 815.62,-235.25"/>
<text text-anchor="middle" x="863.88" y="-217.95" font-family="Times,serif" font-size="14.00">(nil)</text>
</g>
<!-- p0x5dca766d4670 -->
<g id="node10" class="node">
<title>p0x5dca766d4670</title>
<polygon fill="lightgreen" stroke="black" points="678,-314.75 678,-382.5 954.5,-382.5 954.5,-314.75 678,-314.75"/>
<text text-anchor="middle" x="816.25" y="-365.2" font-family="Times,serif" font-size="14.00">nameType::OPERATOR:</text>
<text text-anchor="middle" x="816.25" y="-347.95" font-family="Times,serif" font-size="14.00">сел по статье</text>
<polyline fill="none" stroke="black" points="678,-340 954.5,-340"/>
<text text-anchor="middle" x="746.75" y="-322.7" font-family="Times,serif" font-size="14.00">0x5dca766d47c0</text>
<polyline fill="none" stroke="black" points="815.5,-314.75 815.5,-340"/>
<text text-anchor="middle" x="885" y="-322.7" font-family="Times,serif" font-size="14.00">0x5dca766d4630</text>
</g>
<!-- p0x5dca766d4670&#45;&gt;p0x5dca766d47c0 -->
<g id="edge5" class="edge">
<title>p0x5dca766d4670:l&#45;&gt;p0x5dca766d47c0</title>
<path fill="none" stroke="black" d="M754.83,-314.37C732.07,-301.67 706.45,-287.38 684.39,-275.08"/>
<polygon fill="black" stroke="black" points="686.29,-272.13 675.85,-270.31 682.88,-278.24 686.29,-272.13"/>
</g>
<!-- p0x5dca766d4670&#45;&gt;p0x5dca766d4630 -->
<g id="edge6" class="edge">
<title>p0x5dca766d4670:l&#45;&gt;p0x5dca766d4630</title>
<path fill="none" stroke="black" d="M816.25,-314.37C816.25,-306.42 816.25,-297.85 816.25,-289.54"/>
<polygon fill="black" stroke="black" points="819.75,-289.55 816.25,-279.55 812.75,-289.55 819.75,-289.55"/>
</g>
<!-- p0x5dca766d4380 -->
<g id="node11" class="node">
<title>p0x5dca766d4380</title>
<polygon fill="pink" stroke="black" points="592.25,-428.12 592.25,-478.62 870.25,-478.62 870.25,-428.12 592.25,-428.12"/>
<text text-anchor="middle" x="731.25" y="-461.32" font-family="Times,serif" font-size="14.00">VARIABLE: игрек</text>
<polyline fill="none" stroke="black" points="592.25,-453.38 870.25,-453.38"/>
<text text-anchor="middle" x="661.75" y="-436.07" font-family="Times,serif" font-size="14.00">0x5dca766d45d0</text>
<polyline fill="none" stroke="black" points="731.25,-428.12 731.25,-453.38"/>
<text text-anchor="middle" x="800.75" y="-436.07" font-family="Times,serif" font-size="14.00">0x5dca766d4670</text>
</g>
<!-- p0x5dca766d4380&#45;&gt;p0x5dca766d45d0 -->
<g id="edge7" class="edge">
<title>p0x5dca766d4380:l&#45;&gt;p0x5dca766d45d0</title>
<path fill="none" stroke="black" d="M689.47,-427.73C670.32,-415.97 647.19,-401.77 625.93,-388.72"/>
<polygon fill="black" stroke="black" points="627.96,-385.86 617.6,-383.61 624.3,-391.82 627.96,-385.86"/>
</g>
<!-- p0x5dca766d4380&#45;&gt;p0x5dca766d4670 -->
<g id="edge8" class="edge">
<title>p0x5dca766d4380:l&#45;&gt;p0x5dca766d4670</title>
<path fill="none" stroke="black" d="M752.26,-427.73C761.2,-416.82 771.86,-403.8 781.9,-391.56"/>
<polygon fill="black" stroke="black" points="784.47,-393.94 788.1,-383.99 779.05,-389.5 784.47,-393.94"/>
</g>
<!-- p0x5dca766d4840 -->
<g id="node12" class="node">
<title>p0x5dca766d4840</title>
<polygon fill="lightgreen" stroke="black" points="930,-210 930,-277.75 1124.5,-277.75 1124.5,-210 930,-210"/>
<text text-anchor="middle" x="1027.25" y="-260.45" font-family="Times,serif" font-size="14.00">nameType::TYPE_NAME:</text>
<text text-anchor="middle" x="1027.25" y="-243.2" font-family="Times,serif" font-size="14.00">фраер</text>
<polyline fill="none" stroke="black" points="930,-235.25 1124.5,-235.25"/>
<text text-anchor="middle" x="978.25" y="-217.95" font-family="Times,serif" font-size="14.00">(nil)</text>
<polyline fill="none" stroke="black" points="1026.5,-210 1026.5,-235.25"/>
<text text-anchor="middle" x="1075.25" y="-217.95" font-family="Times,serif" font-size="14.00">(nil)</text>
</g>
<!-- p0x5dca766d4920 -->
<g id="node13" class="node">
<title>p0x5dca766d4920</title>
<polygon fill="lightgreen" stroke="black" points="846.12,-0.5 846.12,-68.25 1038.38,-68.25 1038.38,-0.5 846.12,-0.5"/>
<text text-anchor="middle" x="942.25" y="-50.95" font-family="Times,serif" font-size="14.00">nameType::IDENTIFIER:</text>
<text text-anchor="middle" x="942.25" y="-33.7" font-family="Times,serif" font-size="14.00">икс</text>
<polyline fill="none" stroke="black" points="846.12,-25.75 1038.38,-25.75"/>
<text text-anchor="middle" x="893.88" y="-8.45" font-family="Times,serif" font-size="14.00">(nil)</text>
<polyline fill="none" stroke="black" points="941.62,-0.5 941.62,-25.75"/>
<text text-anchor="middle" x="989.88" y="-8.45" font-family="Times,serif" font-size="14.00">(nil)</text>
</g>
<!-- p0x5dca766d49a0 -->
<g id="node14" class="node">
<title>p0x5dca766d49a0</title>
<polygon fill="lightgreen" stroke="black" points="1056.12,-0.5 1056.12,-68.25 1248.38,-68.25 1248.38,-0.5 1056.12,-0.5"/>
<text text-anchor="middle" x="1152.25" y="-50.95" font-family="Times,serif" font-size="14.00">nameType::IDENTIFIER:</text>
<text text-anchor="middle" x="1152.25" y="-33.7" font-family="Times,serif" font-size="14.00">игрек</text>
<polyline fill="none" stroke="black" points="1056.12,-25.75 1248.38,-25.75"/>
<text text-anchor="middle" x="1103.88" y="-8.45" font-family="Times,serif" font-size="14.00">(nil)</text>
<polyline fill="none" stroke="black" points="1151.62,-0.5 1151.62,-25.75"/>
<text text-anchor="middle" x="1199.88" y="-8.45" font-family="Times,serif" font-size="14.00">(nil)</text>
</g>
<!-- p0x5dca766d4960 -->
<g id="node15" class="node">
<title>p0x5dca766d4960</title>
<polygon fill="lightgreen" stroke="black" points="908.62,-105.25 908.62,-173 1185.88,-173 1185.88,-105.25 908.62,-105.25"/>
<text text-anchor="middle" x="1047.25" y="-155.7" font-family="Times,serif" font-size="14.00">nameType::OPERATOR:</text>
<text text-anchor="middle" x="1047.25" y="-138.45" font-family="Times,serif" font-size="14.00">плюс</text>
<polyline fill="none" stroke="black" points="908.62,-130.5 1185.88,-130.5"/>
<text text-anchor="middle" x="978.12" y="-113.2" font-family="Times,serif" font-size="14.00">0x5dca766d4920</text>
<polyline fill="none" stroke="black" points="1047.62,-105.25 1047.62,-130.5"/>
<text text-anchor="middle" x="1116.75" y="-113.2" font-family="Times,serif" font-size="14.00">0x5dca766d49a0</text>
</g>
<!-- p0x5dca766d4960&#45;&gt;p0x5dca766d4920 -->
<g id="edge9" class="edge">
<title>p0x5dca766d4960:l&#45;&gt;p0x5dca766d4920</title>
<path fill="none" stroke="black" d="M1012.58,-104.87C1003.43,-95.83 993.46,-85.98 983.98,-76.61"/>
<polygon fill="black" stroke="black" points="986.46,-74.14 976.89,-69.6 981.54,-79.12 986.46,-74.14"/>
</g>
<!-- p0x5dca766d4960&#45;&gt;p0x5dca766d49a0 -->
<g id="edge10" class="edge">
<title>p0x5dca766d4960:l&#45;&gt;p0x5dca766d49a0</title>
<path fill="none" stroke="black" d="M1081.92,-104.87C1091.07,-95.83 1101.04,-85.98 1110.52,-76.61"/>
<polygon fill="black" stroke="black" points="1112.96,-79.12 1117.61,-69.6 1108.04,-74.14 1112.96,-79.12"/>
</g>
<!-- p0x5dca766d48a0 -->
<g id="node16" class="node">
<title>p0x5dca766d48a0</title>
<polygon fill="lightgreen" stroke="black" points="1204.12,-105.25 1204.12,-173 1396.38,-173 1396.38,-105.25 1204.12,-105.25"/>
<text text-anchor="middle" x="1300.25" y="-155.7" font-family="Times,serif" font-size="14.00">nameType::IDENTIFIER:</text>
<text text-anchor="middle" x="1300.25" y="-138.45" font-family="Times,serif" font-size="14.00">зэт</text>
<polyline fill="none" stroke="black" points="1204.12,-130.5 1396.38,-130.5"/>
<text text-anchor="middle" x="1251.88" y="-113.2" font-family="Times,serif" font-size="14.00">(nil)</text>
<polyline fill="none" stroke="black" points="1299.62,-105.25 1299.62,-130.5"/>
<text text-anchor="middle" x="1347.88" y="-113.2" font-family="Times,serif" font-size="14.00">(nil)</text>
</g>
<!-- p0x5dca766d48e0 -->
<g id="node17" class="node">
<title>p0x5dca766d48e0</title>
<polygon fill="lightgreen" stroke="black" points="1142.62,-210 1142.62,-277.75 1419.88,-277.75 1419.88,-210 1142.62,-210"/>
<text text-anchor="middle" x="1281.25" y="-260.45" font-family="Times,serif" font-size="14.00">nameType::OPERATOR:</text>
<text text-anchor="middle" x="1281.25" y="-243.2" font-family="Times,serif" font-size="14.00">сел по статье</text>
<polyline fill="none" stroke="black" points="1142.62,-235.25 1419.88,-235.25"/>
<text text-anchor="middle" x="1212.12" y="-217.95" font-family="Times,serif" font-size="14.00">0x5dca766d4960</text>
<polyline fill="none" stroke="black" points="1281.62,-210 1281.62,-235.25"/>
<text text-anchor="middle" x="1350.75" y="-217.95" font-family="Times,serif" font-size="14.00">0x5dca766d48a0</text>
</g>
<!-- p0x5dca766d48e0&#45;&gt;p0x5dca766d4960 -->
<g id="edge11" class="edge">
<title>p0x5dca766d48e0:l&#45;&gt;p0x5dca766d4960</title>
<path fill="none" stroke="black" d="M1203.98,-209.62C1181.14,-199.49 1156,-188.34 1132.67,-178"/>
<polygon fill="black" stroke="black" points="1134.39,-174.93 1123.83,-174.08 1131.55,-181.33 1134.39,-174.93"/>
</g>
<!-- p0x5dca766d48e0&#45;&gt;p0x5dca766d48a0 -->
<g id="edge12" class="edge">
<title>p0x5dca766d48e0:l&#45;&gt;p0x5dca766d48a0</title>
<path fill="none" stroke="black" d="M1287.52,-209.62C1289,-201.58 1290.58,-192.91 1292.12,-184.5"/>
<polygon fill="black" stroke="black" points="1295.55,-185.25 1293.9,-174.78 1288.66,-183.98 1295.55,-185.25"/>
</g>
<!-- p0x5dca766d4340 -->
<g id="node18" class="node">
<title>p0x5dca766d4340</title>
<polygon fill="pink" stroke="black" points="1055.62,-323.38 1055.62,-373.88 1332.88,-373.88 1332.88,-323.38 1055.62,-323.38"/>
<text text-anchor="middle" x="1194.25" y="-356.57" font-family="Times,serif" font-size="14.00">VARIABLE: зэт</text>
<polyline fill="none" stroke="black" points="1055.62,-348.62 1332.88,-348.62"/>
<text text-anchor="middle" x="1125.12" y="-331.32" font-family="Times,serif" font-size="14.00">0x5dca766d4840</text>
<polyline fill="none" stroke="black" points="1194.62,-323.38 1194.62,-348.62"/>
<text text-anchor="middle" x="1263.75" y="-331.32" font-family="Times,serif" font-size="14.00">0x5dca766d48e0</text>
</g>
<!-- p0x5dca766d4340&#45;&gt;p0x5dca766d4840 -->
<g id="edge13" class="edge">
<title>p0x5dca766d4340:l&#45;&gt;p0x5dca766d4840</title>
<path fill="none" stroke="black" d="M1152.97,-322.98C1134.04,-311.22 1111.18,-297.02 1090.17,-283.97"/>
<polygon fill="black" stroke="black" points="1092.3,-281.17 1081.96,-278.86 1088.61,-287.11 1092.3,-281.17"/>
</g>
<!-- p0x5dca766d4340&#45;&gt;p0x5dca766d48e0 -->
<g id="edge14" class="edge">
<title>p0x5dca766d4340:l&#45;&gt;p0x5dca766d48e0</title>
<path fill="none" stroke="black" d="M1215.76,-322.98C1224.91,-312.07 1235.82,-299.05 1246.09,-286.81"/>
<polygon fill="black" stroke="black" points="1248.7,-289.14 1252.45,-279.23 1243.34,-284.64 1248.7,-289.14"/>
</g>
<!-- p0x5dca766d4a60 -->
<g id="node19" class="node">
<title>p0x5dca766d4a60</title>
<polygon fill="lightgreen" stroke="black" points="1434.12,-105.25 1434.12,-173 1626.38,-173 1626.38,-105.25 1434.12,-105.25"/>
<text text-anchor="middle" x="1530.25" y="-155.7" font-family="Times,serif" font-size="14.00">nameType::IDENTIFIER:</text>
<text text-anchor="middle" x="1530.25" y="-138.45" font-family="Times,serif" font-size="14.00">зэт</text>
<polyline fill="none" stroke="black" points="1434.12,-130.5 1626.38,-130.5"/>
<text text-anchor="middle" x="1481.88" y="-113.2" font-family="Times,serif" font-size="14.00">(nil)</text>
<polyline fill="none" stroke="black" points="1529.62,-105.25 1529.62,-130.5"/>
<text text-anchor="middle" x="1577.88" y="-113.2" font-family="Times,serif" font-size="14.00">(nil)</text>
</g>
<!-- p0x5dca766d4a20 -->
<g id="node20" class="node">
<title>p0x5dca766d4a20</title>
<polygon fill="lightgreen" stroke="black" points="1437.88,-210 1437.88,-277.75 1622.62,-277.75 1622.62,-210 1437.88,-210"/>
<text text-anchor="middle" x="1530.25" y="-260.45" font-family="Times,serif" font-size="14.00">nameType::OPERATOR:</text>
<text text-anchor="middle" x="1530.25" y="-243.2" font-family="Times,serif" font-size="14.00">мусорнулся</text>
<polyline fill="none" stroke="black" points="1437.88,-235.25 1622.62,-235.25"/>
<text text-anchor="middle" x="1460.62" y="-217.95" font-family="Times,serif" font-size="14.00">(nil)</text>
<polyline fill="none" stroke="black" points="1483.38,-210 1483.38,-235.25"/>
<text text-anchor="middle" x="1553" y="-217.95" font-family="Times,serif" font-size="14.00">0x5dca766d4a60</text>
</g>
<!-- p0x5dca766d4a20&#45;&gt;p0x5dca766d4a60 -->
<g id="edge15" class="edge">
<title>p0x5dca766d4a20:l&#45;&gt;p0x5dca766d4a60</title>
<path fill="none" stroke="black" d="M1530.25,-209.62C1530.25,-201.67 1530.25,-193.1 1530.25,-184.79"/>
<polygon fill="black" stroke="black" points="1533.75,-184.8 1530.25,-174.8 1526.75,-184.8 1533.75,-184.8"/>
</g>
<!-- p0x5dca766d4aa0 -->
<g id="node21" class="node">
<title>p0x5dca766d4aa0</title>
<polygon fill="lightgreen" stroke="black" points="1392.5,-314.75 1392.5,-382.5 1584,-382.5 1584,-314.75 1392.5,-314.75"/>
<text text-anchor="middle" x="1488.25" y="-365.2" font-family="Times,serif" font-size="14.00">nameType::SEPARATOR:</text>
<text text-anchor="middle" x="1488.25" y="-347.95" font-family="Times,serif" font-size="14.00">;</text>
<polyline fill="none" stroke="black" points="1392.5,-340 1584,-340"/>
<text text-anchor="middle" x="1463.62" y="-322.7" font-family="Times,serif" font-size="14.00">0x5dca766d4a20</text>
<polyline fill="none" stroke="black" points="1534.75,-314.75 1534.75,-340"/>
<text text-anchor="middle" x="1559" y="-322.7" font-family="Times,serif" font-size="14.00">(nil)</text>
</g>
<!-- p0x5dca766d4aa0&#45;&gt;p0x5dca766d4a20 -->
<g id="edge16" class="edge">
<title>p0x5dca766d4aa0:l&#45;&gt;p0x5dca766d4a20</title>
<path fill="none" stroke="black" d="M1502.12,-314.37C1505.45,-306.15 1509.04,-297.26 1512.52,-288.68"/>
<polygon fill="black" stroke="black" points="1515.75,-290.03 1516.26,-279.44 1509.26,-287.4 1515.75,-290.03"/>
</g>
<!-- p0x5dca766d49e0 -->
<g id="node22" class="node">
<title>p0x5dca766d49e0</title>
<polygon fill="lightgreen" stroke="black" points="1056,-419.5 1056,-487.25 1332.5,-487.25 1332.5,-419.5 1056,-419.5"/>
<text text-anchor="middle" x="1194.25" y="-469.95" font-family="Times,serif" font-size="14.00">nameType::SEPARATOR:</text>
<text text-anchor="middle" x="1194.25" y="-452.7" font-family="Times,serif" font-size="14.00">;</text>
<polyline fill="none" stroke="black" points="1056,-444.75 1332.5,-444.75"/>
<text text-anchor="middle" x="1125.5" y="-427.45" font-family="Times,serif" font-size="14.00">0x5dca766d4340</text>
<polyline fill="none" stroke="black" points="1195,-419.5 1195,-444.75"/>
<text text-anchor="middle" x="1263.75" y="-427.45" font-family="Times,serif" font-size="14.00">0x5dca766d4aa0</text>
</g>
<!-- p0x5dca766d49e0&#45;&gt;p0x5dca766d4340 -->
<g id="edge17" class="edge">
<title>p0x5dca766d49e0:l&#45;&gt;p0x5dca766d4340</title>
<path fill="none" stroke="black" d="M1194.25,-419.12C1194.25,-408.37 1194.25,-396.47 1194.25,-385.61"/>
<polygon fill="black" stroke="black" points="1197.75,-385.84 1194.25,-375.84 1190.75,-385.84 1197.75,-385.84"/>
</g>
<!-- p0x5dca766d49e0&#45;&gt;p0x5dca766d4aa0 -->
<g id="edge18" class="edge">
<title>p0x5dca766d49e0:l&#45;&gt;p0x5dca766d4aa0</title>
<path fill="none" stroke="black" d="M1291.33,-419.12C1320.81,-408.71 1353.32,-397.24 1383.29,-386.67"/>
<polygon fill="black" stroke="black" points="1384.08,-390.1 1392.34,-383.47 1381.75,-383.5 1384.08,-390.1"/>
</g>
<!-- p0x5dca766d4800 -->
<g id="node23" class="node">
<title>p0x5dca766d4800</title>
<polygon fill="lightgreen" stroke="black" points="592.62,-524.25 592.62,-592 869.88,-592 869.88,-524.25 592.62,-524.25"/>
<text text-anchor="middle" x="731.25" y="-574.7" font-family="Times,serif" font-size="14.00">nameType::SEPARATOR:</text>
<text text-anchor="middle" x="731.25" y="-557.45" font-family="Times,serif" font-size="14.00">;</text>
<polyline fill="none" stroke="black" points="592.62,-549.5 869.88,-549.5"/>
<text text-anchor="middle" x="662.12" y="-532.2" font-family="Times,serif" font-size="14.00">0x5dca766d4380</text>
<polyline fill="none" stroke="black" points="731.62,-524.25 731.62,-549.5"/>
<text text-anchor="middle" x="800.75" y="-532.2" font-family="Times,serif" font-size="14.00">0x5dca766d49e0</text>
</g>
<!-- p0x5dca766d4800&#45;&gt;p0x5dca766d4380 -->
<g id="edge19" class="edge">
<title>p0x5dca766d4800:l&#45;&gt;p0x5dca766d4380</title>
<path fill="none" stroke="black" d="M731.25,-523.87C731.25,-513.12 731.25,-501.22 731.25,-490.36"/>
<polygon fill="black" stroke="black" points="734.75,-490.59 731.25,-480.59 727.75,-490.59 734.75,-490.59"/>
</g>
<!-- p0x5dca766d4800&#45;&gt;p0x5dca766d49e0 -->
<g id="edge20" class="edge">
<title>p0x5dca766d4800:l&#45;&gt;p0x5dca766d49e0</title>
<path fill="none" stroke="black" d="M870.3,-523.65C927.1,-510.54 989.65,-496.97 1044.53,-485.34"/>
<polygon fill="black" stroke="black" points="1045.21,-488.77 1054.27,-483.28 1043.76,-481.92 1045.21,-488.77"/>
</g>
<!-- p0x5dca766d4590 -->
<g id="node24" class="node">
<title>p0x5dca766d4590</title>
<polygon fill="lightgreen" stroke="black" points="361,-629 361,-696.75 637.5,-696.75 637.5,-629 361,-629"/>
<text text-anchor="middle" x="499.25" y="-679.45" font-family="Times,serif" font-size="14.00">nameType::SEPARATOR:</text>
<text text-anchor="middle" x="499.25" y="-662.2" font-family="Times,serif" font-size="14.00">;</text>
<polyline fill="none" stroke="black" points="361,-654.25 637.5,-654.25"/>
<text text-anchor="middle" x="429.75" y="-636.95" font-family="Times,serif" font-size="14.00">0x5dca766d43c0</text>
<polyline fill="none" stroke="black" points="498.5,-629 498.5,-654.25"/>
<text text-anchor="middle" x="568" y="-636.95" font-family="Times,serif" font-size="14.00">0x5dca766d4800</text>
</g>
<!-- p0x5dca766d4590&#45;&gt;p0x5dca766d43c0 -->
<g id="edge21" class="edge">
<title>p0x5dca766d4590:l&#45;&gt;p0x5dca766d43c0</title>
<path fill="none" stroke="black" d="M450.38,-628.62C432.76,-616.27 412.99,-602.4 395.76,-590.33"/>
<polygon fill="black" stroke="black" points="397.92,-587.57 387.72,-584.69 393.9,-593.3 397.92,-587.57"/>
</g>
<!-- p0x5dca766d4590&#45;&gt;p0x5dca766d4800 -->
<g id="edge22" class="edge">
<title>p0x5dca766d4590:l&#45;&gt;p0x5dca766d4800</title>
<path fill="none" stroke="black" d="M575.86,-628.62C598.41,-618.53 623.21,-607.44 646.25,-597.14"/>
<polygon fill="black" stroke="black" points="647.61,-600.36 655.31,-593.08 644.76,-593.97 647.61,-600.36"/>
</g>
<!-- p0x5dca766d4ae0 -->
<g id="node25" class="node">
<title>p0x5dca766d4ae0</title>
<polygon fill="orange" stroke="black" points="407.5,-742.38 407.5,-792.88 591,-792.88 591,-742.38 407.5,-742.38"/>
<text text-anchor="middle" x="499.25" y="-775.58" font-family="Times,serif" font-size="14.00">PARAMETERS</text>
<polyline fill="none" stroke="black" points="407.5,-767.62 591,-767.62"/>
<text text-anchor="middle" x="429.75" y="-750.33" font-family="Times,serif" font-size="14.00">(nil)</text>
<polyline fill="none" stroke="black" points="452,-742.38 452,-767.62"/>
<text text-anchor="middle" x="521.5" y="-750.33" font-family="Times,serif" font-size="14.00">0x5dca766d4590</text>
</g>
<!-- p0x5dca766d4ae0&#45;&gt;p0x5dca766d4590 -->
<g id="edge23" class="edge">
<title>p0x5dca766d4ae0:l&#45;&gt;p0x5dca766d4590</title>
<path fill="none" stroke="black" d="M499.25,-741.98C499.25,-731.81 499.25,-719.81 499.25,-708.31"/>
<polygon fill="black" stroke="black" points="502.75,-708.58 499.25,-698.58 495.75,-708.58 502.75,-708.58"/>
</g>
<!-- p0x5dca766d4300 -->
<g id="node26" class="node">
<title>p0x5dca766d4300</title>
<polygon fill="yellow" stroke="black" points="257,-838.5 257,-889 533.5,-889 533.5,-838.5 257,-838.5"/>
<text text-anchor="middle" x="395.25" y="-871.7" font-family="Times,serif" font-size="14.00">FUNCTION: мэйн</text>
<polyline fill="none" stroke="black" points="257,-863.75 533.5,-863.75"/>
<text text-anchor="middle" x="326.5" y="-846.45" font-family="Times,serif" font-size="14.00">0x5dca766d4270</text>
<polyline fill="none" stroke="black" points="396,-838.5 396,-863.75"/>
<text text-anchor="middle" x="464.75" y="-846.45" font-family="Times,serif" font-size="14.00">0x5dca766d4ae0</text>
</g>
<!-- p0x5dca766d4300&#45;&gt;p0x5dca766d4270 -->
<g id="edge24" class="edge">
<title>p0x5dca766d4300:l&#45;&gt;p0x5dca766d4270</title>
<path fill="none" stroke="black" d="M367.38,-838.01C357.88,-829.24 347.02,-819.2 336.56,-809.54"/>
<polygon fill="black" stroke="black" points="339.12,-807.15 329.4,-802.93 334.37,-812.29 339.12,-807.15"/>
</g>
<!-- p0x5dca766d4300&#45;&gt;p0x5dca766d4ae0 -->
<g id="edge25" class="edge">
<title>p0x5dca766d4300:l&#45;&gt;p0x5dca766d4ae0</title>
<path fill="none" stroke="black" d="M423.39,-838.01C435.93,-826.54 450.82,-812.92 464.08,-800.79"/>
<polygon fill="black" stroke="black" points="466.38,-803.43 471.4,-794.1 461.66,-798.26 466.38,-803.43"/>
</g>
</g>
</svg>
