<?xml version="1.0" encoding="UTF-8" standalone="no"?>
<!DOCTYPE svg PUBLIC "-//W3C//DTD SVG 1.1//EN"
 "http://www.w3.org/Graphics/SVG/1.1/DTD/svg11.dtd">
<!-- Generated by graphviz version 12.2.1 (20241206.2353)
 -->
<!-- Title: AST Pages: 1 -->
<svg width="2432pt" height="915pt"
 viewBox="0.00 0.00 2432.00 914.75" xmlns="http://www.w3.org/2000/svg" xmlns:xlink="http://www.w3.org/1999/xlink">
<g id="graph0" class="graph" transform="scale(1 1) rotate(0) translate(4 910.75)">
<title>AST</title>
<polygon fill="white" stroke="none" points="-4,4 -4,-910.75 2428,-910.75 2428,4 -4,4"/>
<!-- p0x5878a23a66b0 -->
<g id="node1" class="node">
<title>p0x5878a23a66b0</title>
<polygon fill="lightgreen" stroke="black" points="237,-733.75 237,-801.5 431.5,-801.5 431.5,-733.75 237,-733.75"/>
<text text-anchor="middle" x="334.25" y="-784.2" font-family="Times,serif" font-size="14.00">nameType::TYPE_NAME:</text>
<text text-anchor="middle" x="334.25" y="-766.95" font-family="Times,serif" font-size="14.00">фраер</text>
<polyline fill="none" stroke="black" points="237,-759 431.5,-759"/>
<text text-anchor="middle" x="285.25" y="-741.7" font-family="Times,serif" font-size="14.00">(nil)</text>
<polyline fill="none" stroke="black" points="333.5,-733.75 333.5,-759"/>
<text text-anchor="middle" x="382.25" y="-741.7" font-family="Times,serif" font-size="14.00">(nil)</text>
</g>
<!-- p0x5878a23a6700 -->
<g id="node2" class="node">
<title>p0x5878a23a6700</title>
<polygon fill="lightgreen" stroke="black" points="0,-419.5 0,-487.25 194.5,-487.25 194.5,-419.5 0,-419.5"/>
<text text-anchor="middle" x="97.25" y="-469.95" font-family="Times,serif" font-size="14.00">nameType::TYPE_NAME:</text>
<text text-anchor="middle" x="97.25" y="-452.7" font-family="Times,serif" font-size="14.00">фраер</text>
<polyline fill="none" stroke="black" points="0,-444.75 194.5,-444.75"/>
<text text-anchor="middle" x="48.25" y="-427.45" font-family="Times,serif" font-size="14.00">(nil)</text>
<polyline fill="none" stroke="black" points="96.5,-419.5 96.5,-444.75"/>
<text text-anchor="middle" x="145.25" y="-427.45" font-family="Times,serif" font-size="14.00">(nil)</text>
</g>
<!-- p0x5878a23a69c0 -->
<g id="node3" class="node">
<title>p0x5878a23a69c0</title>
<polygon fill="lightblue" stroke="black" points="93.25,-323.38 93.25,-373.88 237.25,-373.88 237.25,-323.38 93.25,-323.38"/>
<text text-anchor="middle" x="165" y="-356.57" font-family="Times,serif" font-size="14.00">CONSTANT: 228</text>
<polyline fill="none" stroke="black" points="93.25,-348.62 236.75,-348.62"/>
<text text-anchor="middle" x="129" y="-331.32" font-family="Times,serif" font-size="14.00">(nil)</text>
<polyline fill="none" stroke="black" points="164.75,-323.38 164.75,-348.62"/>
<text text-anchor="middle" x="200.5" y="-331.32" font-family="Times,serif" font-size="14.00">(nil)</text>
</g>
<!-- p0x5878a23a6920 -->
<g id="node4" class="node">
<title>p0x5878a23a6920</title>
<polygon fill="lightgreen" stroke="black" points="255.12,-314.75 255.12,-382.5 447.38,-382.5 447.38,-314.75 255.12,-314.75"/>
<text text-anchor="middle" x="351.25" y="-365.2" font-family="Times,serif" font-size="14.00">nameType::IDENTIFIER:</text>
<text text-anchor="middle" x="351.25" y="-347.95" font-family="Times,serif" font-size="14.00">икс</text>
<polyline fill="none" stroke="black" points="255.12,-340 447.38,-340"/>
<text text-anchor="middle" x="302.88" y="-322.7" font-family="Times,serif" font-size="14.00">(nil)</text>
<polyline fill="none" stroke="black" points="350.62,-314.75 350.62,-340"/>
<text text-anchor="middle" x="398.88" y="-322.7" font-family="Times,serif" font-size="14.00">(nil)</text>
</g>
<!-- p0x5878a23a6970 -->
<g id="node5" class="node">
<title>p0x5878a23a6970</title>
<polygon fill="lightgreen" stroke="black" points="212.25,-419.5 212.25,-487.25 490.25,-487.25 490.25,-419.5 212.25,-419.5"/>
<text text-anchor="middle" x="351.25" y="-469.95" font-family="Times,serif" font-size="14.00">nameType::OPERATOR:</text>
<text text-anchor="middle" x="351.25" y="-452.7" font-family="Times,serif" font-size="14.00">сел по статье</text>
<polyline fill="none" stroke="black" points="212.25,-444.75 490.25,-444.75"/>
<text text-anchor="middle" x="281.38" y="-427.45" font-family="Times,serif" font-size="14.00">0x5878a23a69c0</text>
<polyline fill="none" stroke="black" points="350.5,-419.5 350.5,-444.75"/>
<text text-anchor="middle" x="420.38" y="-427.45" font-family="Times,serif" font-size="14.00">0x5878a23a6920</text>
</g>
<!-- p0x5878a23a6970&#45;&gt;p0x5878a23a69c0 -->
<g id="edge1" class="edge">
<title>p0x5878a23a6970:l&#45;&gt;p0x5878a23a69c0</title>
<path fill="none" stroke="black" d="M289.83,-419.12C267.07,-406.42 241.45,-392.13 219.39,-379.83"/>
<polygon fill="black" stroke="black" points="221.29,-376.88 210.85,-375.06 217.88,-382.99 221.29,-376.88"/>
</g>
<!-- p0x5878a23a6970&#45;&gt;p0x5878a23a6920 -->
<g id="edge2" class="edge">
<title>p0x5878a23a6970:l&#45;&gt;p0x5878a23a6920</title>
<path fill="none" stroke="black" d="M351.25,-419.12C351.25,-411.17 351.25,-402.6 351.25,-394.29"/>
<polygon fill="black" stroke="black" points="354.75,-394.3 351.25,-384.3 347.75,-394.3 354.75,-394.3"/>
</g>
<!-- p0x5878a23a6840 -->
<g id="node6" class="node">
<title>p0x5878a23a6840</title>
<polygon fill="pink" stroke="black" points="211.5,-532.88 211.5,-583.38 491,-583.38 491,-532.88 211.5,-532.88"/>
<text text-anchor="middle" x="351.25" y="-566.08" font-family="Times,serif" font-size="14.00">VARIABLE: икс</text>
<polyline fill="none" stroke="black" points="211.5,-558.12 491,-558.12"/>
<text text-anchor="middle" x="281.38" y="-540.83" font-family="Times,serif" font-size="14.00">0x5878a23a6700</text>
<polyline fill="none" stroke="black" points="351.25,-532.88 351.25,-558.12"/>
<text text-anchor="middle" x="421.12" y="-540.83" font-family="Times,serif" font-size="14.00">0x5878a23a6970</text>
</g>
<!-- p0x5878a23a6840&#45;&gt;p0x5878a23a6700 -->
<g id="edge3" class="edge">
<title>p0x5878a23a6840:l&#45;&gt;p0x5878a23a6700</title>
<path fill="none" stroke="black" d="M288.46,-532.48C258.5,-520.24 222.08,-505.36 189.08,-491.89"/>
<polygon fill="black" stroke="black" points="190.49,-488.68 179.91,-488.14 187.84,-495.16 190.49,-488.68"/>
</g>
<!-- p0x5878a23a6840&#45;&gt;p0x5878a23a6970 -->
<g id="edge4" class="edge">
<title>p0x5878a23a6840:l&#45;&gt;p0x5878a23a6970</title>
<path fill="none" stroke="black" d="M351.25,-532.48C351.25,-522.31 351.25,-510.31 351.25,-498.81"/>
<polygon fill="black" stroke="black" points="354.75,-499.08 351.25,-489.08 347.75,-499.08 354.75,-499.08"/>
</g>
<!-- p0x5878a23a6a60 -->
<g id="node7" class="node">
<title>p0x5878a23a6a60</title>
<polygon fill="lightgreen" stroke="black" points="465,-314.75 465,-382.5 659.5,-382.5 659.5,-314.75 465,-314.75"/>
<text text-anchor="middle" x="562.25" y="-365.2" font-family="Times,serif" font-size="14.00">nameType::TYPE_NAME:</text>
<text text-anchor="middle" x="562.25" y="-347.95" font-family="Times,serif" font-size="14.00">фраер</text>
<polyline fill="none" stroke="black" points="465,-340 659.5,-340"/>
<text text-anchor="middle" x="513.25" y="-322.7" font-family="Times,serif" font-size="14.00">(nil)</text>
<polyline fill="none" stroke="black" points="561.5,-314.75 561.5,-340"/>
<text text-anchor="middle" x="610.25" y="-322.7" font-family="Times,serif" font-size="14.00">(nil)</text>
</g>
<!-- p0x5878a23a6c80 -->
<g id="node8" class="node">
<title>p0x5878a23a6c80</title>
<polygon fill="lightgreen" stroke="black" points="374.12,-105.25 374.12,-173 566.38,-173 566.38,-105.25 374.12,-105.25"/>
<text text-anchor="middle" x="470.25" y="-155.7" font-family="Times,serif" font-size="14.00">nameType::IDENTIFIER:</text>
<text text-anchor="middle" x="470.25" y="-138.45" font-family="Times,serif" font-size="14.00">икс</text>
<polyline fill="none" stroke="black" points="374.12,-130.5 566.38,-130.5"/>
<text text-anchor="middle" x="421.88" y="-113.2" font-family="Times,serif" font-size="14.00">(nil)</text>
<polyline fill="none" stroke="black" points="469.62,-105.25 469.62,-130.5"/>
<text text-anchor="middle" x="517.88" y="-113.2" font-family="Times,serif" font-size="14.00">(nil)</text>
</g>
<!-- p0x5878a23a6d20 -->
<g id="node9" class="node">
<title>p0x5878a23a6d20</title>
<polygon fill="lightblue" stroke="black" points="584.25,-113.88 584.25,-164.38 728.25,-164.38 728.25,-113.88 584.25,-113.88"/>
<text text-anchor="middle" x="656" y="-147.07" font-family="Times,serif" font-size="14.00">CONSTANT: 114</text>
<polyline fill="none" stroke="black" points="584.25,-139.12 727.75,-139.12"/>
<text text-anchor="middle" x="620" y="-121.83" font-family="Times,serif" font-size="14.00">(nil)</text>
<polyline fill="none" stroke="black" points="655.75,-113.88 655.75,-139.12"/>
<text text-anchor="middle" x="691.5" y="-121.83" font-family="Times,serif" font-size="14.00">(nil)</text>
</g>
<!-- p0x5878a23a6cd0 -->
<g id="node10" class="node">
<title>p0x5878a23a6cd0</title>
<polygon fill="lightgreen" stroke="black" points="424.25,-210 424.25,-277.75 702.25,-277.75 702.25,-210 424.25,-210"/>
<text text-anchor="middle" x="563.25" y="-260.45" font-family="Times,serif" font-size="14.00">nameType::OPERATOR:</text>
<text text-anchor="middle" x="563.25" y="-243.2" font-family="Times,serif" font-size="14.00">минус</text>
<polyline fill="none" stroke="black" points="424.25,-235.25 702.25,-235.25"/>
<text text-anchor="middle" x="493.38" y="-217.95" font-family="Times,serif" font-size="14.00">0x5878a23a6c80</text>
<polyline fill="none" stroke="black" points="562.5,-210 562.5,-235.25"/>
<text text-anchor="middle" x="632.38" y="-217.95" font-family="Times,serif" font-size="14.00">0x5878a23a6d20</text>
</g>
<!-- p0x5878a23a6cd0&#45;&gt;p0x5878a23a6c80 -->
<g id="edge5" class="edge">
<title>p0x5878a23a6cd0:l&#45;&gt;p0x5878a23a6c80</title>
<path fill="none" stroke="black" d="M532.54,-209.62C524.52,-200.67 515.79,-190.93 507.47,-181.65"/>
<polygon fill="black" stroke="black" points="510.27,-179.53 500.99,-174.42 505.06,-184.2 510.27,-179.53"/>
</g>
<!-- p0x5878a23a6cd0&#45;&gt;p0x5878a23a6d20 -->
<g id="edge6" class="edge">
<title>p0x5878a23a6cd0:l&#45;&gt;p0x5878a23a6d20</title>
<path fill="none" stroke="black" d="M593.96,-209.62C604.42,-197.95 616.08,-184.94 626.46,-173.36"/>
<polygon fill="black" stroke="black" points="629.03,-175.73 633.1,-165.95 623.82,-171.06 629.03,-175.73"/>
</g>
<!-- p0x5878a23a6ad0 -->
<g id="node11" class="node">
<title>p0x5878a23a6ad0</title>
<polygon fill="lightgreen" stroke="black" points="720.12,-210 720.12,-277.75 912.38,-277.75 912.38,-210 720.12,-210"/>
<text text-anchor="middle" x="816.25" y="-260.45" font-family="Times,serif" font-size="14.00">nameType::IDENTIFIER:</text>
<text text-anchor="middle" x="816.25" y="-243.2" font-family="Times,serif" font-size="14.00">игрек</text>
<polyline fill="none" stroke="black" points="720.12,-235.25 912.38,-235.25"/>
<text text-anchor="middle" x="767.88" y="-217.95" font-family="Times,serif" font-size="14.00">(nil)</text>
<polyline fill="none" stroke="black" points="815.62,-210 815.62,-235.25"/>
<text text-anchor="middle" x="863.88" y="-217.95" font-family="Times,serif" font-size="14.00">(nil)</text>
</g>
<!-- p0x5878a23a6b20 -->
<g id="node12" class="node">
<title>p0x5878a23a6b20</title>
<polygon fill="lightgreen" stroke="black" points="677.62,-314.75 677.62,-382.5 954.88,-382.5 954.88,-314.75 677.62,-314.75"/>
<text text-anchor="middle" x="816.25" y="-365.2" font-family="Times,serif" font-size="14.00">nameType::OPERATOR:</text>
<text text-anchor="middle" x="816.25" y="-347.95" font-family="Times,serif" font-size="14.00">сел по статье</text>
<polyline fill="none" stroke="black" points="677.62,-340 954.88,-340"/>
<text text-anchor="middle" x="746.75" y="-322.7" font-family="Times,serif" font-size="14.00">0x5878a23a6cd0</text>
<polyline fill="none" stroke="black" points="815.88,-314.75 815.88,-340"/>
<text text-anchor="middle" x="885.38" y="-322.7" font-family="Times,serif" font-size="14.00">0x5878a23a6ad0</text>
</g>
<!-- p0x5878a23a6b20&#45;&gt;p0x5878a23a6cd0 -->
<g id="edge7" class="edge">
<title>p0x5878a23a6b20:l&#45;&gt;p0x5878a23a6cd0</title>
<path fill="none" stroke="black" d="M732.71,-314.37C707.79,-304.15 680.34,-292.89 654.93,-282.47"/>
<polygon fill="black" stroke="black" points="656.53,-279.35 645.95,-278.79 653.88,-285.82 656.53,-279.35"/>
</g>
<!-- p0x5878a23a6b20&#45;&gt;p0x5878a23a6ad0 -->
<g id="edge8" class="edge">
<title>p0x5878a23a6b20:l&#45;&gt;p0x5878a23a6ad0</title>
<path fill="none" stroke="black" d="M816.25,-314.37C816.25,-306.42 816.25,-297.85 816.25,-289.54"/>
<polygon fill="black" stroke="black" points="819.75,-289.55 816.25,-279.55 812.75,-289.55 819.75,-289.55"/>
</g>
<!-- p0x5878a23a67f0 -->
<g id="node13" class="node">
<title>p0x5878a23a67f0</title>
<polygon fill="pink" stroke="black" points="591.88,-428.12 591.88,-478.62 870.62,-478.62 870.62,-428.12 591.88,-428.12"/>
<text text-anchor="middle" x="731.25" y="-461.32" font-family="Times,serif" font-size="14.00">VARIABLE: игрек</text>
<polyline fill="none" stroke="black" points="591.88,-453.38 870.62,-453.38"/>
<text text-anchor="middle" x="661.38" y="-436.07" font-family="Times,serif" font-size="14.00">0x5878a23a6a60</text>
<polyline fill="none" stroke="black" points="730.88,-428.12 730.88,-453.38"/>
<text text-anchor="middle" x="800.75" y="-436.07" font-family="Times,serif" font-size="14.00">0x5878a23a6b20</text>
</g>
<!-- p0x5878a23a67f0&#45;&gt;p0x5878a23a6a60 -->
<g id="edge9" class="edge">
<title>p0x5878a23a67f0:l&#45;&gt;p0x5878a23a6a60</title>
<path fill="none" stroke="black" d="M689.47,-427.73C670.32,-415.97 647.19,-401.77 625.93,-388.72"/>
<polygon fill="black" stroke="black" points="627.96,-385.86 617.6,-383.61 624.3,-391.82 627.96,-385.86"/>
</g>
<!-- p0x5878a23a67f0&#45;&gt;p0x5878a23a6b20 -->
<g id="edge10" class="edge">
<title>p0x5878a23a67f0:l&#45;&gt;p0x5878a23a6b20</title>
<path fill="none" stroke="black" d="M752.26,-427.73C761.2,-416.82 771.86,-403.8 781.9,-391.56"/>
<polygon fill="black" stroke="black" points="784.47,-393.94 788.1,-383.99 779.05,-389.5 784.47,-393.94"/>
</g>
<!-- p0x5878a23a6dc0 -->
<g id="node14" class="node">
<title>p0x5878a23a6dc0</title>
<polygon fill="lightgreen" stroke="black" points="930,-210 930,-277.75 1124.5,-277.75 1124.5,-210 930,-210"/>
<text text-anchor="middle" x="1027.25" y="-260.45" font-family="Times,serif" font-size="14.00">nameType::TYPE_NAME:</text>
<text text-anchor="middle" x="1027.25" y="-243.2" font-family="Times,serif" font-size="14.00">фраер</text>
<polyline fill="none" stroke="black" points="930,-235.25 1124.5,-235.25"/>
<text text-anchor="middle" x="978.25" y="-217.95" font-family="Times,serif" font-size="14.00">(nil)</text>
<polyline fill="none" stroke="black" points="1026.5,-210 1026.5,-235.25"/>
<text text-anchor="middle" x="1075.25" y="-217.95" font-family="Times,serif" font-size="14.00">(nil)</text>
</g>
<!-- p0x5878a23a6ed0 -->
<g id="node15" class="node">
<title>p0x5878a23a6ed0</title>
<polygon fill="lightgreen" stroke="black" points="848.12,-0.5 848.12,-68.25 1040.38,-68.25 1040.38,-0.5 848.12,-0.5"/>
<text text-anchor="middle" x="944.25" y="-50.95" font-family="Times,serif" font-size="14.00">nameType::IDENTIFIER:</text>
<text text-anchor="middle" x="944.25" y="-33.7" font-family="Times,serif" font-size="14.00">икс</text>
<polyline fill="none" stroke="black" points="848.12,-25.75 1040.38,-25.75"/>
<text text-anchor="middle" x="895.88" y="-8.45" font-family="Times,serif" font-size="14.00">(nil)</text>
<polyline fill="none" stroke="black" points="943.62,-0.5 943.62,-25.75"/>
<text text-anchor="middle" x="991.88" y="-8.45" font-family="Times,serif" font-size="14.00">(nil)</text>
</g>
<!-- p0x5878a23a6f70 -->
<g id="node16" class="node">
<title>p0x5878a23a6f70</title>
<polygon fill="lightgreen" stroke="black" points="1058.12,-0.5 1058.12,-68.25 1250.38,-68.25 1250.38,-0.5 1058.12,-0.5"/>
<text text-anchor="middle" x="1154.25" y="-50.95" font-family="Times,serif" font-size="14.00">nameType::IDENTIFIER:</text>
<text text-anchor="middle" x="1154.25" y="-33.7" font-family="Times,serif" font-size="14.00">игрек</text>
<polyline fill="none" stroke="black" points="1058.12,-25.75 1250.38,-25.75"/>
<text text-anchor="middle" x="1105.88" y="-8.45" font-family="Times,serif" font-size="14.00">(nil)</text>
<polyline fill="none" stroke="black" points="1153.62,-0.5 1153.62,-25.75"/>
<text text-anchor="middle" x="1201.88" y="-8.45" font-family="Times,serif" font-size="14.00">(nil)</text>
</g>
<!-- p0x5878a23a6f20 -->
<g id="node17" class="node">
<title>p0x5878a23a6f20</title>
<polygon fill="lightgreen" stroke="black" points="911.75,-105.25 911.75,-173 1186.75,-173 1186.75,-105.25 911.75,-105.25"/>
<text text-anchor="middle" x="1049.25" y="-155.7" font-family="Times,serif" font-size="14.00">nameType::OPERATOR:</text>
<text text-anchor="middle" x="1049.25" y="-138.45" font-family="Times,serif" font-size="14.00">рассечь</text>
<polyline fill="none" stroke="black" points="911.75,-130.5 1186.75,-130.5"/>
<text text-anchor="middle" x="981.25" y="-113.2" font-family="Times,serif" font-size="14.00">0x5878a23a6ed0</text>
<polyline fill="none" stroke="black" points="1050.75,-105.25 1050.75,-130.5"/>
<text text-anchor="middle" x="1118.75" y="-113.2" font-family="Times,serif" font-size="14.00">0x5878a23a6f70</text>
</g>
<!-- p0x5878a23a6f20&#45;&gt;p0x5878a23a6ed0 -->
<g id="edge11" class="edge">
<title>p0x5878a23a6f20:l&#45;&gt;p0x5878a23a6ed0</title>
<path fill="none" stroke="black" d="M1014.58,-104.87C1005.43,-95.83 995.46,-85.98 985.98,-76.61"/>
<polygon fill="black" stroke="black" points="988.46,-74.14 978.89,-69.6 983.54,-79.12 988.46,-74.14"/>
</g>
<!-- p0x5878a23a6f20&#45;&gt;p0x5878a23a6f70 -->
<g id="edge12" class="edge">
<title>p0x5878a23a6f20:l&#45;&gt;p0x5878a23a6f70</title>
<path fill="none" stroke="black" d="M1083.92,-104.87C1093.07,-95.83 1103.04,-85.98 1112.52,-76.61"/>
<polygon fill="black" stroke="black" points="1114.96,-79.12 1119.61,-69.6 1110.04,-74.14 1114.96,-79.12"/>
</g>
<!-- p0x5878a23a6e30 -->
<g id="node18" class="node">
<title>p0x5878a23a6e30</title>
<polygon fill="lightgreen" stroke="black" points="1205.12,-105.25 1205.12,-173 1397.38,-173 1397.38,-105.25 1205.12,-105.25"/>
<text text-anchor="middle" x="1301.25" y="-155.7" font-family="Times,serif" font-size="14.00">nameType::IDENTIFIER:</text>
<text text-anchor="middle" x="1301.25" y="-138.45" font-family="Times,serif" font-size="14.00">зэт</text>
<polyline fill="none" stroke="black" points="1205.12,-130.5 1397.38,-130.5"/>
<text text-anchor="middle" x="1252.88" y="-113.2" font-family="Times,serif" font-size="14.00">(nil)</text>
<polyline fill="none" stroke="black" points="1300.62,-105.25 1300.62,-130.5"/>
<text text-anchor="middle" x="1348.88" y="-113.2" font-family="Times,serif" font-size="14.00">(nil)</text>
</g>
<!-- p0x5878a23a6e80 -->
<g id="node19" class="node">
<title>p0x5878a23a6e80</title>
<polygon fill="lightgreen" stroke="black" points="1142.75,-210 1142.75,-277.75 1417.75,-277.75 1417.75,-210 1142.75,-210"/>
<text text-anchor="middle" x="1280.25" y="-260.45" font-family="Times,serif" font-size="14.00">nameType::OPERATOR:</text>
<text text-anchor="middle" x="1280.25" y="-243.2" font-family="Times,serif" font-size="14.00">сел по статье</text>
<polyline fill="none" stroke="black" points="1142.75,-235.25 1417.75,-235.25"/>
<text text-anchor="middle" x="1210.75" y="-217.95" font-family="Times,serif" font-size="14.00">0x5878a23a6f20</text>
<polyline fill="none" stroke="black" points="1278.75,-210 1278.75,-235.25"/>
<text text-anchor="middle" x="1348.25" y="-217.95" font-family="Times,serif" font-size="14.00">0x5878a23a6e30</text>
</g>
<!-- p0x5878a23a6e80&#45;&gt;p0x5878a23a6f20 -->
<g id="edge13" class="edge">
<title>p0x5878a23a6e80:l&#45;&gt;p0x5878a23a6f20</title>
<path fill="none" stroke="black" d="M1203.97,-209.62C1181.52,-199.53 1156.83,-188.44 1133.89,-178.14"/>
<polygon fill="black" stroke="black" points="1135.42,-174.99 1124.86,-174.09 1132.55,-181.38 1135.42,-174.99"/>
</g>
<!-- p0x5878a23a6e80&#45;&gt;p0x5878a23a6e30 -->
<g id="edge14" class="edge">
<title>p0x5878a23a6e80:l&#45;&gt;p0x5878a23a6e30</title>
<path fill="none" stroke="black" d="M1287.18,-209.62C1288.81,-201.58 1290.57,-192.91 1292.27,-184.5"/>
<polygon fill="black" stroke="black" points="1295.68,-185.27 1294.24,-174.77 1288.82,-183.88 1295.68,-185.27"/>
</g>
<!-- p0x5878a23a67a0 -->
<g id="node20" class="node">
<title>p0x5878a23a67a0</title>
<polygon fill="pink" stroke="black" points="973.62,-323.38 973.62,-373.88 1250.88,-373.88 1250.88,-323.38 973.62,-323.38"/>
<text text-anchor="middle" x="1112.25" y="-356.57" font-family="Times,serif" font-size="14.00">VARIABLE: зэт</text>
<polyline fill="none" stroke="black" points="973.62,-348.62 1250.88,-348.62"/>
<text text-anchor="middle" x="1042.75" y="-331.32" font-family="Times,serif" font-size="14.00">0x5878a23a6dc0</text>
<polyline fill="none" stroke="black" points="1111.88,-323.38 1111.88,-348.62"/>
<text text-anchor="middle" x="1181.38" y="-331.32" font-family="Times,serif" font-size="14.00">0x5878a23a6e80</text>
</g>
<!-- p0x5878a23a67a0&#45;&gt;p0x5878a23a6dc0 -->
<g id="edge15" class="edge">
<title>p0x5878a23a67a0:l&#45;&gt;p0x5878a23a6dc0</title>
<path fill="none" stroke="black" d="M1091.24,-322.98C1082.3,-312.07 1071.64,-299.05 1061.6,-286.81"/>
<polygon fill="black" stroke="black" points="1064.45,-284.75 1055.4,-279.24 1059.03,-289.19 1064.45,-284.75"/>
</g>
<!-- p0x5878a23a67a0&#45;&gt;p0x5878a23a6e80 -->
<g id="edge16" class="edge">
<title>p0x5878a23a67a0:l&#45;&gt;p0x5878a23a6e80</title>
<path fill="none" stroke="black" d="M1153.78,-322.98C1172.82,-311.22 1195.82,-297.02 1216.95,-283.97"/>
<polygon fill="black" stroke="black" points="1218.55,-287.09 1225.22,-278.86 1214.87,-281.14 1218.55,-287.09"/>
</g>
<!-- p0x5878a23a7120 -->
<g id="node21" class="node">
<title>p0x5878a23a7120</title>
<polygon fill="lightgreen" stroke="black" points="1457.12,-0.5 1457.12,-68.25 1649.38,-68.25 1649.38,-0.5 1457.12,-0.5"/>
<text text-anchor="middle" x="1553.25" y="-50.95" font-family="Times,serif" font-size="14.00">nameType::IDENTIFIER:</text>
<text text-anchor="middle" x="1553.25" y="-33.7" font-family="Times,serif" font-size="14.00">зэт</text>
<polyline fill="none" stroke="black" points="1457.12,-25.75 1649.38,-25.75"/>
<text text-anchor="middle" x="1504.88" y="-8.45" font-family="Times,serif" font-size="14.00">(nil)</text>
<polyline fill="none" stroke="black" points="1552.62,-0.5 1552.62,-25.75"/>
<text text-anchor="middle" x="1600.88" y="-8.45" font-family="Times,serif" font-size="14.00">(nil)</text>
</g>
<!-- p0x5878a23a70d0 -->
<g id="node22" class="node">
<title>p0x5878a23a70d0</title>
<polygon fill="lightgreen" stroke="black" points="1457.5,-105.25 1457.5,-173 1649,-173 1649,-105.25 1457.5,-105.25"/>
<text text-anchor="middle" x="1553.25" y="-155.7" font-family="Times,serif" font-size="14.00">nameType::SEPARATOR:</text>
<text text-anchor="middle" x="1553.25" y="-138.45" font-family="Times,serif" font-size="14.00">,</text>
<polyline fill="none" stroke="black" points="1457.5,-130.5 1649,-130.5"/>
<text text-anchor="middle" x="1528.88" y="-113.2" font-family="Times,serif" font-size="14.00">0x5878a23a7120</text>
<polyline fill="none" stroke="black" points="1600.25,-105.25 1600.25,-130.5"/>
<text text-anchor="middle" x="1624.5" y="-113.2" font-family="Times,serif" font-size="14.00">(nil)</text>
</g>
<!-- p0x5878a23a70d0&#45;&gt;p0x5878a23a7120 -->
<g id="edge17" class="edge">
<title>p0x5878a23a70d0:l&#45;&gt;p0x5878a23a7120</title>
<path fill="none" stroke="black" d="M1553.25,-104.87C1553.25,-96.92 1553.25,-88.35 1553.25,-80.04"/>
<polygon fill="black" stroke="black" points="1556.75,-80.05 1553.25,-70.05 1549.75,-80.05 1556.75,-80.05"/>
</g>
<!-- p0x5878a23a7080 -->
<g id="node23" class="node">
<title>p0x5878a23a7080</title>
<polygon fill="lightgreen" stroke="black" points="1667.12,-105.25 1667.12,-173 1859.38,-173 1859.38,-105.25 1667.12,-105.25"/>
<text text-anchor="middle" x="1763.25" y="-155.7" font-family="Times,serif" font-size="14.00">nameType::IDENTIFIER:</text>
<text text-anchor="middle" x="1763.25" y="-138.45" font-family="Times,serif" font-size="14.00">петух</text>
<polyline fill="none" stroke="black" points="1667.12,-130.5 1859.38,-130.5"/>
<text text-anchor="middle" x="1714.88" y="-113.2" font-family="Times,serif" font-size="14.00">(nil)</text>
<polyline fill="none" stroke="black" points="1762.62,-105.25 1762.62,-130.5"/>
<text text-anchor="middle" x="1810.88" y="-113.2" font-family="Times,serif" font-size="14.00">(nil)</text>
</g>
<!-- p0x5878a23a7fd0 -->
<g id="node24" class="node">
<title>p0x5878a23a7fd0</title>
<polygon fill="cyan" stroke="black" points="1435.5,-218.62 1435.5,-269.12 1715,-269.12 1715,-218.62 1435.5,-218.62"/>
<text text-anchor="middle" x="1575.25" y="-251.82" font-family="Times,serif" font-size="14.00">FUNCTION_CALL</text>
<polyline fill="none" stroke="black" points="1435.5,-243.88 1715,-243.88"/>
<text text-anchor="middle" x="1505.38" y="-226.57" font-family="Times,serif" font-size="14.00">0x5878a23a70d0</text>
<polyline fill="none" stroke="black" points="1575.25,-218.62 1575.25,-243.88"/>
<text text-anchor="middle" x="1645.12" y="-226.57" font-family="Times,serif" font-size="14.00">0x5878a23a7080</text>
</g>
<!-- p0x5878a23a7fd0&#45;&gt;p0x5878a23a70d0 -->
<g id="edge18" class="edge">
<title>p0x5878a23a7fd0:l&#45;&gt;p0x5878a23a70d0</title>
<path fill="none" stroke="black" d="M1569.81,-218.23C1567.66,-208.06 1565.11,-196.06 1562.67,-184.56"/>
<polygon fill="black" stroke="black" points="1566.1,-183.85 1560.6,-174.8 1559.25,-185.3 1566.1,-183.85"/>
</g>
<!-- p0x5878a23a7fd0&#45;&gt;p0x5878a23a7080 -->
<g id="edge19" class="edge">
<title>p0x5878a23a7fd0:l&#45;&gt;p0x5878a23a7080</title>
<path fill="none" stroke="black" d="M1621.72,-218.23C1643.22,-206.36 1669.23,-192.01 1693.05,-178.87"/>
<polygon fill="black" stroke="black" points="1694.72,-181.94 1701.78,-174.05 1691.34,-175.81 1694.72,-181.94"/>
</g>
<!-- p0x5878a23a8230 -->
<g id="node25" class="node">
<title>p0x5878a23a8230</title>
<polygon fill="lightgreen" stroke="black" points="1373.5,-314.75 1373.5,-382.5 1565,-382.5 1565,-314.75 1373.5,-314.75"/>
<text text-anchor="middle" x="1469.25" y="-365.2" font-family="Times,serif" font-size="14.00">nameType::SEPARATOR:</text>
<text text-anchor="middle" x="1469.25" y="-347.95" font-family="Times,serif" font-size="14.00">;</text>
<polyline fill="none" stroke="black" points="1373.5,-340 1565,-340"/>
<text text-anchor="middle" x="1444" y="-322.7" font-family="Times,serif" font-size="14.00">0x5878a23a7fd0</text>
<polyline fill="none" stroke="black" points="1514.5,-314.75 1514.5,-340"/>
<text text-anchor="middle" x="1539.75" y="-322.7" font-family="Times,serif" font-size="14.00">(nil)</text>
</g>
<!-- p0x5878a23a8230&#45;&gt;p0x5878a23a7fd0 -->
<g id="edge20" class="edge">
<title>p0x5878a23a8230:l&#45;&gt;p0x5878a23a7fd0</title>
<path fill="none" stroke="black" d="M1504.25,-314.37C1516.4,-302.47 1529.99,-289.18 1541.99,-277.43"/>
<polygon fill="black" stroke="black" points="1544.24,-280.13 1548.93,-270.63 1539.34,-275.13 1544.24,-280.13"/>
</g>
<!-- p0x5878a23a6fc0 -->
<g id="node26" class="node">
<title>p0x5878a23a6fc0</title>
<polygon fill="lightgreen" stroke="black" points="972.88,-419.5 972.88,-487.25 1251.62,-487.25 1251.62,-419.5 972.88,-419.5"/>
<text text-anchor="middle" x="1112.25" y="-469.95" font-family="Times,serif" font-size="14.00">nameType::SEPARATOR:</text>
<text text-anchor="middle" x="1112.25" y="-452.7" font-family="Times,serif" font-size="14.00">;</text>
<polyline fill="none" stroke="black" points="972.88,-444.75 1251.62,-444.75"/>
<text text-anchor="middle" x="1042.38" y="-427.45" font-family="Times,serif" font-size="14.00">0x5878a23a67a0</text>
<polyline fill="none" stroke="black" points="1111.88,-419.5 1111.88,-444.75"/>
<text text-anchor="middle" x="1181.75" y="-427.45" font-family="Times,serif" font-size="14.00">0x5878a23a8230</text>
</g>
<!-- p0x5878a23a6fc0&#45;&gt;p0x5878a23a67a0 -->
<g id="edge21" class="edge">
<title>p0x5878a23a6fc0:l&#45;&gt;p0x5878a23a67a0</title>
<path fill="none" stroke="black" d="M1112.25,-419.12C1112.25,-408.37 1112.25,-396.47 1112.25,-385.61"/>
<polygon fill="black" stroke="black" points="1115.75,-385.84 1112.25,-375.84 1108.75,-385.84 1115.75,-385.84"/>
</g>
<!-- p0x5878a23a6fc0&#45;&gt;p0x5878a23a8230 -->
<g id="edge22" class="edge">
<title>p0x5878a23a6fc0:l&#45;&gt;p0x5878a23a8230</title>
<path fill="none" stroke="black" d="M1230.13,-419.12C1272.74,-406.74 1320.56,-392.84 1362.19,-380.74"/>
<polygon fill="black" stroke="black" points="1363.11,-384.12 1371.73,-377.96 1361.15,-377.39 1363.11,-384.12"/>
</g>
<!-- p0x5878a23a6d70 -->
<g id="node27" class="node">
<title>p0x5878a23a6d70</title>
<polygon fill="lightgreen" stroke="black" points="596,-524.25 596,-592 866.5,-592 866.5,-524.25 596,-524.25"/>
<text text-anchor="middle" x="731.25" y="-574.7" font-family="Times,serif" font-size="14.00">nameType::SEPARATOR:</text>
<text text-anchor="middle" x="731.25" y="-557.45" font-family="Times,serif" font-size="14.00">;</text>
<polyline fill="none" stroke="black" points="596,-549.5 866.5,-549.5"/>
<text text-anchor="middle" x="664" y="-532.2" font-family="Times,serif" font-size="14.00">0x5878a23a67f0</text>
<polyline fill="none" stroke="black" points="732,-524.25 732,-549.5"/>
<text text-anchor="middle" x="799.25" y="-532.2" font-family="Times,serif" font-size="14.00">0x5878a23a6fc0</text>
</g>
<!-- p0x5878a23a6d70&#45;&gt;p0x5878a23a67f0 -->
<g id="edge23" class="edge">
<title>p0x5878a23a6d70:l&#45;&gt;p0x5878a23a67f0</title>
<path fill="none" stroke="black" d="M731.25,-523.87C731.25,-513.12 731.25,-501.22 731.25,-490.36"/>
<polygon fill="black" stroke="black" points="734.75,-490.59 731.25,-480.59 727.75,-490.59 734.75,-490.59"/>
</g>
<!-- p0x5878a23a6d70&#45;&gt;p0x5878a23a6fc0 -->
<g id="edge24" class="edge">
<title>p0x5878a23a6d70:l&#45;&gt;p0x5878a23a6fc0</title>
<path fill="none" stroke="black" d="M857.32,-523.79C896.34,-513.17 939.45,-501.43 978.94,-490.68"/>
<polygon fill="black" stroke="black" points="979.79,-494.07 988.51,-488.07 977.95,-487.32 979.79,-494.07"/>
</g>
<!-- p0x5878a23a6a10 -->
<g id="node28" class="node">
<title>p0x5878a23a6a10</title>
<polygon fill="lightgreen" stroke="black" points="401.5,-629 401.5,-696.75 681,-696.75 681,-629 401.5,-629"/>
<text text-anchor="middle" x="541.25" y="-679.45" font-family="Times,serif" font-size="14.00">nameType::SEPARATOR:</text>
<text text-anchor="middle" x="541.25" y="-662.2" font-family="Times,serif" font-size="14.00">;</text>
<polyline fill="none" stroke="black" points="401.5,-654.25 681,-654.25"/>
<text text-anchor="middle" x="471.38" y="-636.95" font-family="Times,serif" font-size="14.00">0x5878a23a6840</text>
<polyline fill="none" stroke="black" points="541.25,-629 541.25,-654.25"/>
<text text-anchor="middle" x="611.12" y="-636.95" font-family="Times,serif" font-size="14.00">0x5878a23a6d70</text>
</g>
<!-- p0x5878a23a6a10&#45;&gt;p0x5878a23a6840 -->
<g id="edge25" class="edge">
<title>p0x5878a23a6a10:l&#45;&gt;p0x5878a23a6840</title>
<path fill="none" stroke="black" d="M478.51,-628.62C455.26,-615.92 429.09,-601.63 406.56,-589.33"/>
<polygon fill="black" stroke="black" points="408.26,-586.27 397.81,-584.55 404.91,-592.41 408.26,-586.27"/>
</g>
<!-- p0x5878a23a6a10&#45;&gt;p0x5878a23a6d70 -->
<g id="edge26" class="edge">
<title>p0x5878a23a6a10:l&#45;&gt;p0x5878a23a6d70</title>
<path fill="none" stroke="black" d="M603.99,-628.62C621.96,-618.81 641.67,-608.04 660.1,-597.98"/>
<polygon fill="black" stroke="black" points="661.76,-601.06 668.86,-593.19 658.41,-594.91 661.76,-601.06"/>
</g>
<!-- p0x5878a23a8280 -->
<g id="node29" class="node">
<title>p0x5878a23a8280</title>
<polygon fill="orange" stroke="black" points="449.5,-742.38 449.5,-792.88 633,-792.88 633,-742.38 449.5,-742.38"/>
<text text-anchor="middle" x="541.25" y="-775.58" font-family="Times,serif" font-size="14.00">PARAMETERS</text>
<polyline fill="none" stroke="black" points="449.5,-767.62 633,-767.62"/>
<text text-anchor="middle" x="471.75" y="-750.33" font-family="Times,serif" font-size="14.00">(nil)</text>
<polyline fill="none" stroke="black" points="494,-742.38 494,-767.62"/>
<text text-anchor="middle" x="563.5" y="-750.33" font-family="Times,serif" font-size="14.00">0x5878a23a6a10</text>
</g>
<!-- p0x5878a23a8280&#45;&gt;p0x5878a23a6a10 -->
<g id="edge27" class="edge">
<title>p0x5878a23a8280:l&#45;&gt;p0x5878a23a6a10</title>
<path fill="none" stroke="black" d="M541.25,-741.98C541.25,-731.81 541.25,-719.81 541.25,-708.31"/>
<polygon fill="black" stroke="black" points="544.75,-708.58 541.25,-698.58 537.75,-708.58 544.75,-708.58"/>
</g>
<!-- p0x5878a23a7010 -->
<g id="node30" class="node">
<title>p0x5878a23a7010</title>
<polygon fill="yellow" stroke="black" points="298.5,-847.12 298.5,-897.62 578,-897.62 578,-847.12 298.5,-847.12"/>
<text text-anchor="middle" x="438.25" y="-880.33" font-family="Times,serif" font-size="14.00">FUNCTION: мэйн</text>
<polyline fill="none" stroke="black" points="298.5,-872.38 578,-872.38"/>
<text text-anchor="middle" x="368.38" y="-855.08" font-family="Times,serif" font-size="14.00">0x5878a23a66b0</text>
<polyline fill="none" stroke="black" points="438.25,-847.12 438.25,-872.38"/>
<text text-anchor="middle" x="508.12" y="-855.08" font-family="Times,serif" font-size="14.00">0x5878a23a8280</text>
</g>
<!-- p0x5878a23a7010&#45;&gt;p0x5878a23a66b0 -->
<g id="edge28" class="edge">
<title>p0x5878a23a7010:l&#45;&gt;p0x5878a23a66b0</title>
<path fill="none" stroke="black" d="M412.54,-846.73C401.39,-835.6 388.05,-822.3 375.57,-809.84"/>
<polygon fill="black" stroke="black" points="378.14,-807.47 368.59,-802.88 373.2,-812.42 378.14,-807.47"/>
</g>
<!-- p0x5878a23a7010&#45;&gt;p0x5878a23a8280 -->
<g id="edge29" class="edge">
<title>p0x5878a23a7010:l&#45;&gt;p0x5878a23a8280</title>
<path fill="none" stroke="black" d="M463.71,-846.73C477.38,-832.96 494.38,-815.84 508.97,-801.14"/>
<polygon fill="black" stroke="black" points="511.16,-803.9 515.73,-794.34 506.2,-798.97 511.16,-803.9"/>
</g>
<!-- p0x5878a23a8370 -->
<g id="node31" class="node">
<title>p0x5878a23a8370</title>
<polygon fill="lightgreen" stroke="black" points="1645,-629 1645,-696.75 1839.5,-696.75 1839.5,-629 1645,-629"/>
<text text-anchor="middle" x="1742.25" y="-679.45" font-family="Times,serif" font-size="14.00">nameType::TYPE_NAME:</text>
<text text-anchor="middle" x="1742.25" y="-662.2" font-family="Times,serif" font-size="14.00">фраер</text>
<polyline fill="none" stroke="black" points="1645,-654.25 1839.5,-654.25"/>
<text text-anchor="middle" x="1693.25" y="-636.95" font-family="Times,serif" font-size="14.00">(nil)</text>
<polyline fill="none" stroke="black" points="1741.5,-629 1741.5,-654.25"/>
<text text-anchor="middle" x="1790.25" y="-636.95" font-family="Times,serif" font-size="14.00">(nil)</text>
</g>
<!-- p0x5878a23a8460 -->
<g id="node32" class="node">
<title>p0x5878a23a8460</title>
<polygon fill="lightgreen" stroke="black" points="1583,-314.75 1583,-382.5 1777.5,-382.5 1777.5,-314.75 1583,-314.75"/>
<text text-anchor="middle" x="1680.25" y="-365.2" font-family="Times,serif" font-size="14.00">nameType::TYPE_NAME:</text>
<text text-anchor="middle" x="1680.25" y="-347.95" font-family="Times,serif" font-size="14.00">фраер</text>
<polyline fill="none" stroke="black" points="1583,-340 1777.5,-340"/>
<text text-anchor="middle" x="1631.25" y="-322.7" font-family="Times,serif" font-size="14.00">(nil)</text>
<polyline fill="none" stroke="black" points="1679.5,-314.75 1679.5,-340"/>
<text text-anchor="middle" x="1728.25" y="-322.7" font-family="Times,serif" font-size="14.00">(nil)</text>
</g>
<!-- p0x5878a23a84b0 -->
<g id="node33" class="node">
<title>p0x5878a23a84b0</title>
<polygon fill="lightgreen" stroke="black" points="1795.12,-314.75 1795.12,-382.5 1987.38,-382.5 1987.38,-314.75 1795.12,-314.75"/>
<text text-anchor="middle" x="1891.25" y="-365.2" font-family="Times,serif" font-size="14.00">nameType::IDENTIFIER:</text>
<text text-anchor="middle" x="1891.25" y="-347.95" font-family="Times,serif" font-size="14.00">зэт</text>
<polyline fill="none" stroke="black" points="1795.12,-340 1987.38,-340"/>
<text text-anchor="middle" x="1842.88" y="-322.7" font-family="Times,serif" font-size="14.00">(nil)</text>
<polyline fill="none" stroke="black" points="1890.62,-314.75 1890.62,-340"/>
<text text-anchor="middle" x="1938.88" y="-322.7" font-family="Times,serif" font-size="14.00">(nil)</text>
</g>
<!-- p0x5878a23a8410 -->
<g id="node34" class="node">
<title>p0x5878a23a8410</title>
<polygon fill="pink" stroke="black" points="1730.5,-428.12 1730.5,-478.62 2010,-478.62 2010,-428.12 1730.5,-428.12"/>
<text text-anchor="middle" x="1870.25" y="-461.32" font-family="Times,serif" font-size="14.00">VARIABLE: зэт</text>
<polyline fill="none" stroke="black" points="1730.5,-453.38 2010,-453.38"/>
<text text-anchor="middle" x="1800.38" y="-436.07" font-family="Times,serif" font-size="14.00">0x5878a23a8460</text>
<polyline fill="none" stroke="black" points="1870.25,-428.12 1870.25,-453.38"/>
<text text-anchor="middle" x="1940.12" y="-436.07" font-family="Times,serif" font-size="14.00">0x5878a23a84b0</text>
</g>
<!-- p0x5878a23a8410&#45;&gt;p0x5878a23a8460 -->
<g id="edge30" class="edge">
<title>p0x5878a23a8410:l&#45;&gt;p0x5878a23a8460</title>
<path fill="none" stroke="black" d="M1823.28,-427.73C1801.46,-415.81 1775.04,-401.38 1750.87,-388.19"/>
<polygon fill="black" stroke="black" points="1752.82,-385.26 1742.36,-383.54 1749.46,-391.41 1752.82,-385.26"/>
</g>
<!-- p0x5878a23a8410&#45;&gt;p0x5878a23a84b0 -->
<g id="edge31" class="edge">
<title>p0x5878a23a8410:l&#45;&gt;p0x5878a23a84b0</title>
<path fill="none" stroke="black" d="M1875.44,-427.73C1877.5,-417.56 1879.93,-405.56 1882.26,-394.06"/>
<polygon fill="black" stroke="black" points="1885.68,-394.79 1884.23,-384.3 1878.82,-393.41 1885.68,-394.79"/>
</g>
<!-- p0x5878a23a83c0 -->
<g id="node35" class="node">
<title>p0x5878a23a83c0</title>
<polygon fill="lightgreen" stroke="black" points="1774.5,-524.25 1774.5,-592 1966,-592 1966,-524.25 1774.5,-524.25"/>
<text text-anchor="middle" x="1870.25" y="-574.7" font-family="Times,serif" font-size="14.00">nameType::SEPARATOR:</text>
<text text-anchor="middle" x="1870.25" y="-557.45" font-family="Times,serif" font-size="14.00">,</text>
<polyline fill="none" stroke="black" points="1774.5,-549.5 1966,-549.5"/>
<text text-anchor="middle" x="1845.88" y="-532.2" font-family="Times,serif" font-size="14.00">0x5878a23a8410</text>
<polyline fill="none" stroke="black" points="1917.25,-524.25 1917.25,-549.5"/>
<text text-anchor="middle" x="1941.5" y="-532.2" font-family="Times,serif" font-size="14.00">(nil)</text>
</g>
<!-- p0x5878a23a83c0&#45;&gt;p0x5878a23a8410 -->
<g id="edge32" class="edge">
<title>p0x5878a23a83c0:l&#45;&gt;p0x5878a23a8410</title>
<path fill="none" stroke="black" d="M1870.25,-523.87C1870.25,-513.12 1870.25,-501.22 1870.25,-490.36"/>
<polygon fill="black" stroke="black" points="1873.75,-490.59 1870.25,-480.59 1866.75,-490.59 1873.75,-490.59"/>
</g>
<!-- p0x5878a23a85f0 -->
<g id="node36" class="node">
<title>p0x5878a23a85f0</title>
<polygon fill="lightgreen" stroke="black" points="2026.12,-314.75 2026.12,-382.5 2218.38,-382.5 2218.38,-314.75 2026.12,-314.75"/>
<text text-anchor="middle" x="2122.25" y="-365.2" font-family="Times,serif" font-size="14.00">nameType::IDENTIFIER:</text>
<text text-anchor="middle" x="2122.25" y="-347.95" font-family="Times,serif" font-size="14.00">зэт</text>
<polyline fill="none" stroke="black" points="2026.12,-340 2218.38,-340"/>
<text text-anchor="middle" x="2073.88" y="-322.7" font-family="Times,serif" font-size="14.00">(nil)</text>
<polyline fill="none" stroke="black" points="2121.62,-314.75 2121.62,-340"/>
<text text-anchor="middle" x="2169.88" y="-322.7" font-family="Times,serif" font-size="14.00">(nil)</text>
</g>
<!-- p0x5878a23a85a0 -->
<g id="node37" class="node">
<title>p0x5878a23a85a0</title>
<polygon fill="lightgreen" stroke="black" points="2029.88,-419.5 2029.88,-487.25 2214.62,-487.25 2214.62,-419.5 2029.88,-419.5"/>
<text text-anchor="middle" x="2122.25" y="-469.95" font-family="Times,serif" font-size="14.00">nameType::OPERATOR:</text>
<text text-anchor="middle" x="2122.25" y="-452.7" font-family="Times,serif" font-size="14.00">откинулся</text>
<polyline fill="none" stroke="black" points="2029.88,-444.75 2214.62,-444.75"/>
<text text-anchor="middle" x="2053.12" y="-427.45" font-family="Times,serif" font-size="14.00">(nil)</text>
<polyline fill="none" stroke="black" points="2076.38,-419.5 2076.38,-444.75"/>
<text text-anchor="middle" x="2145.38" y="-427.45" font-family="Times,serif" font-size="14.00">0x5878a23a85f0</text>
</g>
<!-- p0x5878a23a85a0&#45;&gt;p0x5878a23a85f0 -->
<g id="edge33" class="edge">
<title>p0x5878a23a85a0:l&#45;&gt;p0x5878a23a85f0</title>
<path fill="none" stroke="black" d="M2122.25,-419.12C2122.25,-411.17 2122.25,-402.6 2122.25,-394.29"/>
<polygon fill="black" stroke="black" points="2125.75,-394.3 2122.25,-384.3 2118.75,-394.3 2125.75,-394.3"/>
</g>
<!-- p0x5878a23a86e0 -->
<g id="node38" class="node">
<title>p0x5878a23a86e0</title>
<polygon fill="lightblue" stroke="black" points="2257.25,-218.62 2257.25,-269.12 2401.25,-269.12 2401.25,-218.62 2257.25,-218.62"/>
<text text-anchor="middle" x="2329" y="-251.82" font-family="Times,serif" font-size="14.00">CONSTANT: 555</text>
<polyline fill="none" stroke="black" points="2257.25,-243.88 2400.75,-243.88"/>
<text text-anchor="middle" x="2293" y="-226.57" font-family="Times,serif" font-size="14.00">(nil)</text>
<polyline fill="none" stroke="black" points="2328.75,-218.62 2328.75,-243.88"/>
<text text-anchor="middle" x="2364.5" y="-226.57" font-family="Times,serif" font-size="14.00">(nil)</text>
</g>
<!-- p0x5878a23a8690 -->
<g id="node39" class="node">
<title>p0x5878a23a8690</title>
<polygon fill="lightgreen" stroke="black" points="2236.88,-314.75 2236.88,-382.5 2421.62,-382.5 2421.62,-314.75 2236.88,-314.75"/>
<text text-anchor="middle" x="2329.25" y="-365.2" font-family="Times,serif" font-size="14.00">nameType::OPERATOR:</text>
<text text-anchor="middle" x="2329.25" y="-347.95" font-family="Times,serif" font-size="14.00">мусорнулся</text>
<polyline fill="none" stroke="black" points="2236.88,-340 2421.62,-340"/>
<text text-anchor="middle" x="2259.12" y="-322.7" font-family="Times,serif" font-size="14.00">(nil)</text>
<polyline fill="none" stroke="black" points="2281.38,-314.75 2281.38,-340"/>
<text text-anchor="middle" x="2351.38" y="-322.7" font-family="Times,serif" font-size="14.00">0x5878a23a86e0</text>
</g>
<!-- p0x5878a23a8690&#45;&gt;p0x5878a23a86e0 -->
<g id="edge34" class="edge">
<title>p0x5878a23a8690:l&#45;&gt;p0x5878a23a86e0</title>
<path fill="none" stroke="black" d="M2329.25,-314.37C2329.25,-303.62 2329.25,-291.72 2329.25,-280.86"/>
<polygon fill="black" stroke="black" points="2332.75,-281.09 2329.25,-271.09 2325.75,-281.09 2332.75,-281.09"/>
</g>
<!-- p0x5878a23a8730 -->
<g id="node40" class="node">
<title>p0x5878a23a8730</title>
<polygon fill="lightgreen" stroke="black" points="2232.5,-419.5 2232.5,-487.25 2424,-487.25 2424,-419.5 2232.5,-419.5"/>
<text text-anchor="middle" x="2328.25" y="-469.95" font-family="Times,serif" font-size="14.00">nameType::SEPARATOR:</text>
<text text-anchor="middle" x="2328.25" y="-452.7" font-family="Times,serif" font-size="14.00">;</text>
<polyline fill="none" stroke="black" points="2232.5,-444.75 2424,-444.75"/>
<text text-anchor="middle" x="2303.88" y="-427.45" font-family="Times,serif" font-size="14.00">0x5878a23a8690</text>
<polyline fill="none" stroke="black" points="2375.25,-419.5 2375.25,-444.75"/>
<text text-anchor="middle" x="2399.5" y="-427.45" font-family="Times,serif" font-size="14.00">(nil)</text>
</g>
<!-- p0x5878a23a8730&#45;&gt;p0x5878a23a8690 -->
<g id="edge35" class="edge">
<title>p0x5878a23a8730:l&#45;&gt;p0x5878a23a8690</title>
<path fill="none" stroke="black" d="M2328.58,-419.12C2328.66,-411.17 2328.74,-402.6 2328.82,-394.29"/>
<polygon fill="black" stroke="black" points="2332.32,-394.34 2328.92,-384.3 2325.32,-394.27 2332.32,-394.34"/>
</g>
<!-- p0x5878a23a8640 -->
<g id="node41" class="node">
<title>p0x5878a23a8640</title>
<polygon fill="lightgreen" stroke="black" points="1983.88,-524.25 1983.88,-592 2262.62,-592 2262.62,-524.25 1983.88,-524.25"/>
<text text-anchor="middle" x="2123.25" y="-574.7" font-family="Times,serif" font-size="14.00">nameType::SEPARATOR:</text>
<text text-anchor="middle" x="2123.25" y="-557.45" font-family="Times,serif" font-size="14.00">;</text>
<polyline fill="none" stroke="black" points="1983.88,-549.5 2262.62,-549.5"/>
<text text-anchor="middle" x="2053.38" y="-532.2" font-family="Times,serif" font-size="14.00">0x5878a23a85a0</text>
<polyline fill="none" stroke="black" points="2122.88,-524.25 2122.88,-549.5"/>
<text text-anchor="middle" x="2192.75" y="-532.2" font-family="Times,serif" font-size="14.00">0x5878a23a8730</text>
</g>
<!-- p0x5878a23a8640&#45;&gt;p0x5878a23a85a0 -->
<g id="edge36" class="edge">
<title>p0x5878a23a8640:l&#45;&gt;p0x5878a23a85a0</title>
<path fill="none" stroke="black" d="M2122.92,-523.87C2122.84,-515.92 2122.76,-507.35 2122.68,-499.04"/>
<polygon fill="black" stroke="black" points="2126.18,-499.02 2122.58,-489.05 2119.18,-499.09 2126.18,-499.02"/>
</g>
<!-- p0x5878a23a8640&#45;&gt;p0x5878a23a8730 -->
<g id="edge37" class="edge">
<title>p0x5878a23a8640:l&#45;&gt;p0x5878a23a8730</title>
<path fill="none" stroke="black" d="M2190.94,-523.87C2210.6,-513.92 2232.19,-502.99 2252.31,-492.81"/>
<polygon fill="black" stroke="black" points="2253.68,-496.04 2261.02,-488.4 2250.52,-489.79 2253.68,-496.04"/>
</g>
<!-- p0x5878a23a8550 -->
<g id="node42" class="node">
<title>p0x5878a23a8550</title>
<polygon fill="orange" stroke="black" points="1857.25,-637.62 1857.25,-688.12 2135.25,-688.12 2135.25,-637.62 1857.25,-637.62"/>
<text text-anchor="middle" x="1996.25" y="-670.83" font-family="Times,serif" font-size="14.00">PARAMETERS</text>
<polyline fill="none" stroke="black" points="1857.25,-662.88 2135.25,-662.88"/>
<text text-anchor="middle" x="1926.38" y="-645.58" font-family="Times,serif" font-size="14.00">0x5878a23a83c0</text>
<polyline fill="none" stroke="black" points="1995.5,-637.62 1995.5,-662.88"/>
<text text-anchor="middle" x="2065.38" y="-645.58" font-family="Times,serif" font-size="14.00">0x5878a23a8640</text>
</g>
<!-- p0x5878a23a8550&#45;&gt;p0x5878a23a83c0 -->
<g id="edge38" class="edge">
<title>p0x5878a23a8550:l&#45;&gt;p0x5878a23a83c0</title>
<path fill="none" stroke="black" d="M1965.1,-637.23C1951.34,-625.89 1934.81,-612.29 1919.44,-599.63"/>
<polygon fill="black" stroke="black" points="1921.67,-596.93 1911.73,-593.28 1917.22,-602.34 1921.67,-596.93"/>
</g>
<!-- p0x5878a23a8550&#45;&gt;p0x5878a23a8640 -->
<g id="edge39" class="edge">
<title>p0x5878a23a8550:l&#45;&gt;p0x5878a23a8640</title>
<path fill="none" stroke="black" d="M2027.64,-637.23C2041.65,-625.79 2058.48,-612.03 2074.1,-599.28"/>
<polygon fill="black" stroke="black" points="2075.92,-602.31 2081.45,-593.27 2071.49,-596.89 2075.92,-602.31"/>
</g>
<!-- p0x5878a23a8500 -->
<g id="node43" class="node">
<title>p0x5878a23a8500</title>
<polygon fill="yellow" stroke="black" points="1729.5,-742.38 1729.5,-792.88 2009,-792.88 2009,-742.38 1729.5,-742.38"/>
<text text-anchor="middle" x="1869.25" y="-775.58" font-family="Times,serif" font-size="14.00">FUNCTION: петух</text>
<polyline fill="none" stroke="black" points="1729.5,-767.62 2009,-767.62"/>
<text text-anchor="middle" x="1799.38" y="-750.33" font-family="Times,serif" font-size="14.00">0x5878a23a8370</text>
<polyline fill="none" stroke="black" points="1869.25,-742.38 1869.25,-767.62"/>
<text text-anchor="middle" x="1939.12" y="-750.33" font-family="Times,serif" font-size="14.00">0x5878a23a8550</text>
</g>
<!-- p0x5878a23a8500&#45;&gt;p0x5878a23a8370 -->
<g id="edge40" class="edge">
<title>p0x5878a23a8500:l&#45;&gt;p0x5878a23a8370</title>
<path fill="none" stroke="black" d="M1837.86,-741.98C1823.85,-730.54 1807.02,-716.78 1791.4,-704.03"/>
<polygon fill="black" stroke="black" points="1794.01,-701.64 1784.05,-698.02 1789.58,-707.06 1794.01,-701.64"/>
</g>
<!-- p0x5878a23a8500&#45;&gt;p0x5878a23a8550 -->
<g id="edge41" class="edge">
<title>p0x5878a23a8500:l&#45;&gt;p0x5878a23a8550</title>
<path fill="none" stroke="black" d="M1900.64,-741.98C1917.81,-727.95 1939.23,-710.45 1957.44,-695.58"/>
<polygon fill="black" stroke="black" points="1959.39,-698.51 1964.92,-689.47 1954.96,-693.09 1959.39,-698.51"/>
</g>
<!-- p0x5878a23a87d0 -->
<g id="node44" class="node">
<title>p0x5878a23a87d0</title>
<polygon fill="lightgreen" stroke="black" points="1773.5,-838.5 1773.5,-906.25 1965,-906.25 1965,-838.5 1773.5,-838.5"/>
<text text-anchor="middle" x="1869.25" y="-888.95" font-family="Times,serif" font-size="14.00">nameType::SEPARATOR:</text>
<text text-anchor="middle" x="1869.25" y="-871.7" font-family="Times,serif" font-size="14.00">;</text>
<polyline fill="none" stroke="black" points="1773.5,-863.75 1965,-863.75"/>
<text text-anchor="middle" x="1844.88" y="-846.45" font-family="Times,serif" font-size="14.00">0x5878a23a8500</text>
<polyline fill="none" stroke="black" points="1916.25,-838.5 1916.25,-863.75"/>
<text text-anchor="middle" x="1940.5" y="-846.45" font-family="Times,serif" font-size="14.00">(nil)</text>
</g>
<!-- p0x5878a23a87d0&#45;&gt;p0x5878a23a8500 -->
<g id="edge42" class="edge">
<title>p0x5878a23a87d0:l&#45;&gt;p0x5878a23a8500</title>
<path fill="none" stroke="black" d="M1869.25,-838.12C1869.25,-827.37 1869.25,-815.47 1869.25,-804.61"/>
<polygon fill="black" stroke="black" points="1872.75,-804.84 1869.25,-794.84 1865.75,-804.84 1872.75,-804.84"/>
</g>
</g>
</svg>
